<svg class="main-svg" xmlns="http://www.w3.org/2000/svg" xmlns:xlink="http://www.w3.org/1999/xlink" width="858" height="650" style="" viewBox="0 0 858 650"><rect x="0" y="0" width="858" height="650" style="fill: rgb(255, 255, 255); fill-opacity: 1;"/><defs id="defs-c159d0"><g class="clips"><clipPath id="clipc159d0xyplot" class="plotclip"><rect width="768" height="500"/></clipPath><clipPath class="axesclip" id="clipc159d0x"><rect x="70" y="0" width="768" height="650"/></clipPath><clipPath class="axesclip" id="clipc159d0y"><rect x="0" y="60" width="858" height="500"/></clipPath><clipPath class="axesclip" id="clipc159d0xy"><rect x="70" y="60" width="768" height="500"/></clipPath></g><g class="gradients"/><g class="patterns"/></defs><g class="bglayer"><rect class="bg" x="70" y="60" width="768" height="500" style="fill: rgb(235, 235, 235); fill-opacity: 1; stroke-width: 0;"/></g><g class="layer-below"><g class="imagelayer"/><g class="shapelayer"><path data-index="0" fill-rule="evenodd" d="M70,560H838V60H70Z" style="opacity: 1; stroke: rgb(0, 0, 0); stroke-opacity: 0; fill: rgb(0, 0, 0); fill-opacity: 0; stroke-width: 0px;"/></g></g><g class="cartesianlayer"><g class="subplot xy"><g class="layer-subplot"><g class="shapelayer"/><g class="imagelayer"/></g><g class="gridlayer"><g class="x"><path class="xgrid crisp" transform="translate(115.18,0)" d="M0,60v500" style="stroke: rgb(255, 255, 255); stroke-opacity: 1; stroke-width: 1px;"/><path class="xgrid crisp" transform="translate(190.47,0)" d="M0,60v500" style="stroke: rgb(255, 255, 255); stroke-opacity: 1; stroke-width: 1px;"/><path class="xgrid crisp" transform="translate(265.76,0)" d="M0,60v500" style="stroke: rgb(255, 255, 255); stroke-opacity: 1; stroke-width: 1px;"/><path class="xgrid crisp" transform="translate(341.06,0)" d="M0,60v500" style="stroke: rgb(255, 255, 255); stroke-opacity: 1; stroke-width: 1px;"/><path class="xgrid crisp" transform="translate(416.35,0)" d="M0,60v500" style="stroke: rgb(255, 255, 255); stroke-opacity: 1; stroke-width: 1px;"/><path class="xgrid crisp" transform="translate(491.65,0)" d="M0,60v500" style="stroke: rgb(255, 255, 255); stroke-opacity: 1; stroke-width: 1px;"/><path class="xgrid crisp" transform="translate(566.94,0)" d="M0,60v500" style="stroke: rgb(255, 255, 255); stroke-opacity: 1; stroke-width: 1px;"/><path class="xgrid crisp" transform="translate(642.24,0)" d="M0,60v500" style="stroke: rgb(255, 255, 255); stroke-opacity: 1; stroke-width: 1px;"/><path class="xgrid crisp" transform="translate(717.53,0)" d="M0,60v500" style="stroke: rgb(255, 255, 255); stroke-opacity: 1; stroke-width: 1px;"/><path class="xgrid crisp" transform="translate(792.82,0)" d="M0,60v500" style="stroke: rgb(255, 255, 255); stroke-opacity: 1; stroke-width: 1px;"/></g><g class="y"><path class="ygrid crisp" transform="translate(0,537.27)" d="M70,0h768" style="stroke: rgb(255, 255, 255); stroke-opacity: 1; stroke-width: 1px;"/><path class="ygrid crisp" transform="translate(0,423.64)" d="M70,0h768" style="stroke: rgb(255, 255, 255); stroke-opacity: 1; stroke-width: 1px;"/><path class="ygrid crisp" transform="translate(0,310)" d="M70,0h768" style="stroke: rgb(255, 255, 255); stroke-opacity: 1; stroke-width: 1px;"/><path class="ygrid crisp" transform="translate(0,196.36)" d="M70,0h768" style="stroke: rgb(255, 255, 255); stroke-opacity: 1; stroke-width: 1px;"/><path class="ygrid crisp" transform="translate(0,82.73)" d="M70,0h768" style="stroke: rgb(255, 255, 255); stroke-opacity: 1; stroke-width: 1px;"/></g></g><g class="zerolinelayer"/><path class="xlines-below"/><path class="ylines-below"/><g class="overlines-below"/><g class="xaxislayer-below"/><g class="yaxislayer-below"/><g class="overaxes-below"/><g class="plot" transform="translate(70,60)" clip-path="url(#clipc159d0xyplot)"><g class="scatterlayer mlayer"><g class="trace scatter trace8ebcaf" style="stroke-miterlimit: 2; opacity: 1;"><g class="fills"><g><path class="js-fill" d="M120.47,478.88L119.72,431.02L119.65,429.93L117.98,412.53L117.83,411.44L113.38,374.45L113.36,373.36L113.87,359.22L113.97,358.14L118.53,302.66L118.56,301.57L119.54,254.8L119.55,253.71L119.16,217.81L119.11,216.72L115.85,142.75L115.85,141.67L115.51,90.54L115.39,89.45L113.55,79.66L113.24,78.57L109.87,69.87L109.33,68.78L104.04,60.08L103.27,58.99L85.82,35.06L85.28,33.97L83.13,27.45L82.98,26.36L83.07,20.92L83.26,19.83L85.65,13.31L86.22,12.22L91.38,4.6L92.24,3.52L111.46,-21.5L112.07,-22.59L116.64,-33.47L116.97,-34.56L119.51,-48.7L119.61,-49.79L120.5,-76.98L120.73,-60.66L120.76,-59.58L122.67,-40L122.89,-38.91L126.72,-26.94L127.22,-25.85L132.91,-16.06L133.67,-14.98L143.27,-3.01L144.2,-1.92L153.42,10.04L154.09,11.13L157.09,17.66L157.41,18.75L158.12,24.18L158.07,25.27L156.97,30.71L156.59,31.8L153.26,38.33L152.57,39.41L145.24,49.2L144.37,50.29L134.72,63.34L134.05,64.43L129.61,73.13L129.17,74.22L126.6,82.92L126.38,84.01L125.07,94.89L125.01,95.98L124.86,115.56L124.87,116.65L124.89,157.98L124.86,159.07L123.58,188.44L123.51,189.53L121.35,234.13L121.34,235.22L121.71,274.38L121.73,275.46L123.28,321.15L123.35,322.24L126.08,349.43L126.2,350.52L127.58,369.01L127.6,370.1L126.93,384.24L126.82,385.33L123.56,408.17L123.41,409.26L121.29,429.93L121.22,431.02L120.53,457.12L120.53,458.21L120.47,478.88L120.47,478.88Z" style="fill: rgb(24, 15, 62); fill-opacity: 0.35; stroke-width: 0;"/></g></g><g class="errorbars"/><g class="lines"><path class="js-line" d="M120.47,478.88L119.72,431.02L119.65,429.93L117.98,412.53L117.83,411.44L113.38,374.45L113.36,373.36L113.87,359.22L113.97,358.14L118.53,302.66L118.56,301.57L119.54,254.8L119.55,253.71L119.16,217.81L119.11,216.72L115.85,142.75L115.85,141.67L115.51,90.54L115.39,89.45L113.55,79.66L113.24,78.57L109.87,69.87L109.33,68.78L104.04,60.08L103.27,58.99L85.82,35.06L85.28,33.97L83.13,27.45L82.98,26.36L83.07,20.92L83.26,19.83L85.65,13.31L86.22,12.22L91.38,4.6L92.24,3.52L111.46,-21.5L112.07,-22.59L116.64,-33.47L116.97,-34.56L119.51,-48.7L119.61,-49.79L120.5,-76.98L120.73,-60.66L120.76,-59.58L122.67,-40L122.89,-38.91L126.72,-26.94L127.22,-25.85L132.91,-16.06L133.67,-14.98L143.27,-3.01L144.2,-1.92L153.42,10.04L154.09,11.13L157.09,17.66L157.41,18.75L158.12,24.18L158.07,25.27L156.97,30.71L156.59,31.8L153.26,38.33L152.57,39.41L145.24,49.2L144.37,50.29L134.72,63.34L134.05,64.43L129.61,73.13L129.17,74.22L126.6,82.92L126.38,84.01L125.07,94.89L125.01,95.98L124.86,115.56L124.87,116.65L124.89,157.98L124.86,159.07L123.58,188.44L123.51,189.53L121.35,234.13L121.34,235.22L121.71,274.38L121.73,275.46L123.28,321.15L123.35,322.24L126.08,349.43L126.2,350.52L127.58,369.01L127.6,370.1L126.93,384.24L126.82,385.33L123.56,408.17L123.41,409.26L121.29,429.93L121.22,431.02L120.53,457.12L120.53,458.21L120.47,478.88L120.47,478.88" style="vector-effect: non-scaling-stroke; fill: none; stroke: rgb(51, 51, 51); stroke-opacity: 0.35; stroke-width: 1.88976px; opacity: 1;"/></g><g class="points"/><g class="text"/></g><g class="trace scatter trace5afc14" style="stroke-miterlimit: 2; opacity: 1;"><g class="fills"><g><path class="js-fill" d="M195.76,533.2L195.02,460.92L194.96,459.58L193.26,436.83L193.1,435.49L190.52,419.43L190.24,418.09L186.41,403.37L185.99,402.03L180.1,385.97L179.54,384.63L161.75,341.8L161.36,340.46L158.79,328.42L158.62,327.08L158.14,316.37L158.19,315.03L159.36,304.32L159.6,302.99L162.7,289.6L163.06,288.26L170.08,260.16L170.3,258.82L171.59,245.43L171.63,244.09L171.01,230.71L170.86,229.37L168.27,213.31L168.01,211.97L163.65,186.54L163.51,185.2L162.97,171.82L163.01,170.48L164.15,158.44L164.36,157.1L167.6,142.37L167.96,141.04L178.65,100.88L178.87,99.54L180.24,86.16L180.3,84.82L179.96,70.1L179.86,68.76L176.23,24.59L176.25,23.25L177.4,8.53L177.58,7.19L181.23,-11.54L181.55,-12.88L192.78,-66.42L192.95,-67.76L195.49,-111.93L195.51,-113.27L195.78,-150.74L196.86,-87.84L196.94,-86.5L200.3,-55.71L200.52,-54.37L206.66,-26.27L207,-24.93L213.1,1.84L213.33,3.18L215.05,17.9L215.13,19.24L215.1,33.96L215.03,35.3L212.89,56.71L212.73,58.05L211.19,78.13L211.17,79.47L211.78,92.85L211.93,94.19L213.91,106.24L214.2,107.58L218.86,124.97L219.26,126.31L226.17,151.74L226.45,153.08L228.29,166.47L228.39,167.8L228.35,181.19L228.26,182.53L226.34,197.25L226.1,198.59L220.27,233.39L220.17,234.73L219.99,246.77L220.05,248.11L221.69,261.49L221.94,262.83L225.86,278.89L226.23,280.23L231.93,302.99L232.17,304.32L233.39,316.37L233.41,317.71L232.74,328.42L232.54,329.75L230.17,340.46L229.78,341.8L224.94,355.18L224.38,356.52L205.97,400.69L205.54,402.03L201.29,418.09L201.01,419.43L198.43,435.49L198.27,436.83L196.69,456.9L196.63,458.24L195.88,491.7L195.87,493.04L195.76,533.2Z" style="fill: rgb(69, 16, 119); fill-opacity: 0.35; stroke-width: 0;"/></g></g><g class="errorbars"/><g class="lines"><path class="js-line" d="M195.76,533.2L195.02,460.92L194.96,459.58L193.26,436.83L193.1,435.49L190.52,419.43L190.24,418.09L186.41,403.37L185.99,402.03L180.1,385.97L179.54,384.63L161.75,341.8L161.36,340.46L158.79,328.42L158.62,327.08L158.14,316.37L158.19,315.03L159.36,304.32L159.6,302.99L162.7,289.6L163.06,288.26L170.08,260.16L170.3,258.82L171.59,245.43L171.63,244.09L171.01,230.71L170.86,229.37L168.27,213.31L168.01,211.97L163.65,186.54L163.51,185.2L162.97,171.82L163.01,170.48L164.15,158.44L164.36,157.1L167.6,142.37L167.96,141.04L178.65,100.88L178.87,99.54L180.24,86.16L180.3,84.82L179.96,70.1L179.86,68.76L176.23,24.59L176.25,23.25L177.4,8.53L177.58,7.19L181.23,-11.54L181.55,-12.88L192.78,-66.42L192.95,-67.76L195.49,-111.93L195.51,-113.27L195.78,-150.74L196.86,-87.84L196.94,-86.5L200.3,-55.71L200.52,-54.37L206.66,-26.27L207,-24.93L213.1,1.84L213.33,3.18L215.05,17.9L215.13,19.24L215.1,33.96L215.03,35.3L212.89,56.71L212.73,58.05L211.19,78.13L211.17,79.47L211.78,92.85L211.93,94.19L213.91,106.24L214.2,107.58L218.86,124.97L219.26,126.31L226.17,151.74L226.45,153.08L228.29,166.47L228.39,167.8L228.35,181.19L228.26,182.53L226.34,197.25L226.1,198.59L220.27,233.39L220.17,234.73L219.99,246.77L220.05,248.11L221.69,261.49L221.94,262.83L225.86,278.89L226.23,280.23L231.93,302.99L232.17,304.32L233.39,316.37L233.41,317.71L232.74,328.42L232.54,329.75L230.17,340.46L229.78,341.8L224.94,355.18L224.38,356.52L205.97,400.69L205.54,402.03L201.29,418.09L201.01,419.43L198.43,435.49L198.27,436.83L196.69,456.9L196.63,458.24L195.88,491.7L195.87,493.04L195.76,533.2" style="vector-effect: non-scaling-stroke; fill: none; stroke: rgb(51, 51, 51); stroke-opacity: 0.35; stroke-width: 1.88976px; opacity: 1;"/></g><g class="points"/><g class="text"/></g><g class="trace scatter tracea96b9b" style="stroke-miterlimit: 2; opacity: 1;"><g class="fills"><g><path class="js-fill" d="M346.35,395.82L345.61,377.63L345.53,377.06L343.5,369.11L343.29,368.54L336.67,350.35L336.59,349.78L336.28,342.39L336.32,341.83L337.9,332.16L338.02,331.6L339.22,322.5L339.22,321.93L339.56,305.45L339.68,304.88L341.3,294.09L341.28,293.52L340.28,287.27L340.14,286.7L335.19,269.65L334.85,269.08L331.01,264.53L330.38,263.96L322.78,258.28L321.95,257.71L312.35,250.32L311.83,249.75L309.3,245.78L309.11,245.21L308.75,241.23L308.81,240.66L309.96,228.16L309.89,227.59L309.61,220.77L309.74,220.2L311.31,216.79L311.73,216.22L315.81,212.24L316.54,211.67L334.83,198.03L335.3,197.47L337.76,192.92L337.93,192.35L338.64,186.67L338.67,186.1L339.59,178.14L339.73,177.57L342.35,164.5L342.34,163.93L341.32,157.68L341.18,157.11L339.42,148.02L339.41,147.45L340.21,141.77L340.37,141.2L345.76,122.44L345.83,121.88L346.32,110.51L346.33,109.94L346.35,105.39L347.01,123.01L347.09,123.58L348.93,131.54L349.12,132.11L353.22,145.75L353.27,146.32L352.8,152L352.68,152.57L350.38,165.64L350.41,166.21L351.75,173.03L351.91,173.6L353.83,182.69L353.88,183.26L355.15,193.49L355.37,194.06L357.88,198.03L358.38,198.6L363.65,203.15L364.45,203.72L380.02,215.09L380.52,215.65L382.81,219.63L382.97,220.2L383.17,224.75L383.11,225.32L382.7,233.84L382.77,234.41L383.86,244.07L383.74,244.64L382.22,248.05L381.82,248.62L377.86,252.6L377.15,253.16L359.52,266.8L359.05,267.37L356.41,271.92L356.19,272.49L354.14,280.44L354.01,281.01L351.4,294.09L351.4,294.65L352.15,300.91L352.27,301.47L353.89,311.7L353.9,312.27L354.22,329.32L354.33,329.89L356.47,343.53L356.48,344.1L355.82,351.49L355.71,352.06L353.29,359.45L353.05,360.01L347.71,374.22L347.59,374.79L346.55,383.88L346.52,384.45L346.35,395.82Z" style="fill: rgb(159, 47, 127); fill-opacity: 0.35; stroke-width: 0;"/></g></g><g class="errorbars"/><g class="lines"><path class="js-line" d="M346.35,395.82L345.61,377.63L345.53,377.06L343.5,369.11L343.29,368.54L336.67,350.35L336.59,349.78L336.28,342.39L336.32,341.83L337.9,332.16L338.02,331.6L339.22,322.5L339.22,321.93L339.56,305.45L339.68,304.88L341.3,294.09L341.28,293.52L340.28,287.27L340.14,286.7L335.19,269.65L334.85,269.08L331.01,264.53L330.38,263.96L322.78,258.28L321.95,257.71L312.35,250.32L311.83,249.75L309.3,245.78L309.11,245.21L308.75,241.23L308.81,240.66L309.96,228.16L309.89,227.59L309.61,220.77L309.74,220.2L311.31,216.79L311.73,216.22L315.81,212.24L316.54,211.67L334.83,198.03L335.3,197.47L337.76,192.92L337.93,192.35L338.64,186.67L338.67,186.1L339.59,178.14L339.73,177.57L342.35,164.5L342.34,163.93L341.32,157.68L341.18,157.11L339.42,148.02L339.41,147.45L340.21,141.77L340.37,141.2L345.76,122.44L345.83,121.88L346.32,110.51L346.33,109.94L346.35,105.39L347.01,123.01L347.09,123.58L348.93,131.54L349.12,132.11L353.22,145.75L353.27,146.32L352.8,152L352.68,152.57L350.38,165.64L350.41,166.21L351.75,173.03L351.91,173.6L353.83,182.69L353.88,183.26L355.15,193.49L355.37,194.06L357.88,198.03L358.38,198.6L363.65,203.15L364.45,203.72L380.02,215.09L380.52,215.65L382.81,219.63L382.97,220.2L383.17,224.75L383.11,225.32L382.7,233.84L382.77,234.41L383.86,244.07L383.74,244.64L382.22,248.05L381.82,248.62L377.86,252.6L377.15,253.16L359.52,266.8L359.05,267.37L356.41,271.92L356.19,272.49L354.14,280.44L354.01,281.01L351.4,294.09L351.4,294.65L352.15,300.91L352.27,301.47L353.89,311.7L353.9,312.27L354.22,329.32L354.33,329.89L356.47,343.53L356.48,344.1L355.82,351.49L355.71,352.06L353.29,359.45L353.05,360.01L347.71,374.22L347.59,374.79L346.55,383.88L346.52,384.45L346.35,395.82" style="vector-effect: non-scaling-stroke; fill: none; stroke: rgb(51, 51, 51); stroke-opacity: 0.35; stroke-width: 1.88976px; opacity: 1;"/></g><g class="points"/><g class="text"/></g><g class="trace scatter trace72fc8c" style="stroke-miterlimit: 2; opacity: 1;"><g class="fills"><g><path class="js-fill" d="M496.94,66.41L496.19,58.82L496.15,58.71L494.39,52.53L494.4,52.42L494.16,49.05L494.11,48.95L491.25,43.74L491.29,43.63L492.83,41.57L492.94,41.46L496,37.45L496.03,37.34L496.04,33.97L496.03,33.86L494.9,30.83L494.79,30.72L492.32,29.31L492.02,29.2L485.31,27.57L484.7,27.46L459.31,22.8L459.3,22.73L460.2,22.04L460.49,21.93L466.86,20.63L467.56,20.52L492.99,16.07L493.27,15.96L496.15,14.01L496.22,13.9L496.89,11.3L496.9,11.19L496.97,10.97L497.53,13.68L497.59,13.79L499.43,15.42L499.64,15.53L504.24,17.05L504.71,17.16L521,19.76L521.78,19.87L534.33,22.36L534.46,22.47L534.29,23.12L534.1,23.23L533.88,23.34L529.48,24.43L528.85,24.53L500.79,29.63L500.56,29.74L498.38,31.69L498.33,31.8L497.71,35.28L497.7,35.38L498.28,38.42L498.34,38.53L500.94,41.46L501.05,41.57L502.72,44.28L502.71,44.39L501.8,46.34L501.71,46.45L499.33,50.47L499.32,50.57L498.81,56.32L498.76,56.43L497.05,61.86L497.04,61.97L496.94,66.41L496.94,66.41Z" style="fill: rgb(241, 96, 93); fill-opacity: 0.35; stroke-width: 0;"/></g></g><g class="errorbars"/><g class="lines"><path class="js-line" d="M496.94,66.41L496.19,58.82L496.15,58.71L494.39,52.53L494.4,52.42L494.16,49.05L494.11,48.95L491.25,43.74L491.29,43.63L492.83,41.57L492.94,41.46L496,37.45L496.03,37.34L496.04,33.97L496.03,33.86L494.9,30.83L494.79,30.72L492.32,29.31L492.02,29.2L485.31,27.57L484.7,27.46L459.31,22.8L459.3,22.73L460.2,22.04L460.49,21.93L466.86,20.63L467.56,20.52L492.99,16.07L493.27,15.96L496.15,14.01L496.22,13.9L496.89,11.3L496.9,11.19L496.97,10.97L497.53,13.68L497.59,13.79L499.43,15.42L499.64,15.53L504.24,17.05L504.71,17.16L521,19.76L521.78,19.87L534.33,22.36L534.46,22.47L534.29,23.12L534.1,23.23L533.88,23.34L529.48,24.43L528.85,24.53L500.79,29.63L500.56,29.74L498.38,31.69L498.33,31.8L497.71,35.28L497.7,35.38L498.28,38.42L498.34,38.53L500.94,41.46L501.05,41.57L502.72,44.28L502.71,44.39L501.8,46.34L501.71,46.45L499.33,50.47L499.32,50.57L498.81,56.32L498.76,56.43L497.05,61.86L497.04,61.97L496.94,66.41L496.94,66.41" style="vector-effect: non-scaling-stroke; fill: none; stroke: rgb(51, 51, 51); stroke-opacity: 0.35; stroke-width: 1.88976px; opacity: 1;"/></g><g class="points"/><g class="text"/></g><g class="trace scatter trace15a111" style="stroke-miterlimit: 2; opacity: 1;"><g class="fills"><g><path class="js-fill" d="M534.59,22.73L609.88,22.73L534.59,22.73Z" style="fill: rgb(253, 149, 103); fill-opacity: 0.35; stroke-width: 0;"/></g></g><g class="errorbars"/><g class="lines"><path class="js-line" d="M534.59,22.73L609.88,22.73L534.59,22.73" style="vector-effect: non-scaling-stroke; fill: none; stroke: rgb(51, 51, 51); stroke-opacity: 0.35; stroke-width: 1.88976px; opacity: 1;"/></g><g class="points"/><g class="text"/></g><g class="trace scatter tracef02640" style="stroke-miterlimit: 2; opacity: 1;"><g class="fills"><g><path class="js-fill" d="M609.88,22.73L685.18,22.73L609.88,22.73Z" style="fill: rgb(254, 201, 141); fill-opacity: 0.35; stroke-width: 0;"/></g></g><g class="errorbars"/><g class="lines"><path class="js-line" d="M609.88,22.73L685.18,22.73L609.88,22.73" style="vector-effect: non-scaling-stroke; fill: none; stroke: rgb(51, 51, 51); stroke-opacity: 0.35; stroke-width: 1.88976px; opacity: 1;"/></g><g class="points"/><g class="text"/></g><g class="trace scatter trace89140d" style="stroke-miterlimit: 2; opacity: 1;"><g class="fills"><g><path class="js-fill" d="M685.18,22.73L760.47,22.73L685.18,22.73Z" style="fill: rgb(252, 253, 191); fill-opacity: 0.35; stroke-width: 0;"/></g></g><g class="errorbars"/><g class="lines"><path class="js-line" d="M685.18,22.73L760.47,22.73L685.18,22.73" style="vector-effect: non-scaling-stroke; fill: none; stroke: rgb(51, 51, 51); stroke-opacity: 0.35; stroke-width: 1.88976px; opacity: 1;"/></g><g class="points"/><g class="text"/></g><g class="trace scatter tracec21d6f" style="stroke-miterlimit: 2; opacity: 1;"><g class="fills"/><g class="errorbars"/><g class="lines"/><g class="points"><path class="point" transform="translate(120.54,346.07)" d="M1.51,0A1.51,1.51 0 1,1 0,-1.51A1.51,1.51 0 0,1 1.51,0Z" style="opacity: 0.35; stroke-width: 0px; fill: rgb(24, 15, 62); fill-opacity: 1;"/><path class="point" transform="translate(116.81,22.73)" d="M1.51,0A1.51,1.51 0 1,1 0,-1.51A1.51,1.51 0 0,1 1.51,0Z" style="opacity: 0.35; stroke-width: 0px; fill: rgb(24, 15, 62); fill-opacity: 1;"/><path class="point" transform="translate(115.36,22.73)" d="M1.51,0A1.51,1.51 0 1,1 0,-1.51A1.51,1.51 0 0,1 1.51,0Z" style="opacity: 0.35; stroke-width: 0px; fill: rgb(24, 15, 62); fill-opacity: 1;"/><path class="point" transform="translate(129.19,22.73)" d="M1.51,0A1.51,1.51 0 1,1 0,-1.51A1.51,1.51 0 0,1 1.51,0Z" style="opacity: 0.35; stroke-width: 0px; fill: rgb(24, 15, 62); fill-opacity: 1;"/><path class="point" transform="translate(125.55,22.73)" d="M1.51,0A1.51,1.51 0 1,1 0,-1.51A1.51,1.51 0 0,1 1.51,0Z" style="opacity: 0.35; stroke-width: 0px; fill: rgb(24, 15, 62); fill-opacity: 1;"/><path class="point" transform="translate(124.03,22.73)" d="M1.51,0A1.51,1.51 0 1,1 0,-1.51A1.51,1.51 0 0,1 1.51,0Z" style="opacity: 0.35; stroke-width: 0px; fill: rgb(24, 15, 62); fill-opacity: 1;"/><path class="point" transform="translate(111.16,145.24)" d="M1.51,0A1.51,1.51 0 1,1 0,-1.51A1.51,1.51 0 0,1 1.51,0Z" style="opacity: 0.35; stroke-width: 0px; fill: rgb(24, 15, 62); fill-opacity: 1;"/><path class="point" transform="translate(119.61,364.89)" d="M1.51,0A1.51,1.51 0 1,1 0,-1.51A1.51,1.51 0 0,1 1.51,0Z" style="opacity: 0.35; stroke-width: 0px; fill: rgb(24, 15, 62); fill-opacity: 1;"/><path class="point" transform="translate(119.53,78.63)" d="M1.51,0A1.51,1.51 0 1,1 0,-1.51A1.51,1.51 0 0,1 1.51,0Z" style="opacity: 0.35; stroke-width: 0px; fill: rgb(24, 15, 62); fill-opacity: 1;"/><path class="point" transform="translate(119.99,22.73)" d="M1.51,0A1.51,1.51 0 1,1 0,-1.51A1.51,1.51 0 0,1 1.51,0Z" style="opacity: 0.35; stroke-width: 0px; fill: rgb(24, 15, 62); fill-opacity: 1;"/><path class="point" transform="translate(130.54,22.73)" d="M1.51,0A1.51,1.51 0 1,1 0,-1.51A1.51,1.51 0 0,1 1.51,0Z" style="opacity: 0.35; stroke-width: 0px; fill: rgb(24, 15, 62); fill-opacity: 1;"/><path class="point" transform="translate(115.17,22.73)" d="M1.51,0A1.51,1.51 0 1,1 0,-1.51A1.51,1.51 0 0,1 1.51,0Z" style="opacity: 0.35; stroke-width: 0px; fill: rgb(24, 15, 62); fill-opacity: 1;"/><path class="point" transform="translate(129.31,378.8)" d="M1.51,0A1.51,1.51 0 1,1 0,-1.51A1.51,1.51 0 0,1 1.51,0Z" style="opacity: 0.35; stroke-width: 0px; fill: rgb(24, 15, 62); fill-opacity: 1;"/><path class="point" transform="translate(115.11,22.73)" d="M1.51,0A1.51,1.51 0 1,1 0,-1.51A1.51,1.51 0 0,1 1.51,0Z" style="opacity: 0.35; stroke-width: 0px; fill: rgb(24, 15, 62); fill-opacity: 1;"/><path class="point" transform="translate(128.01,22.73)" d="M1.51,0A1.51,1.51 0 1,1 0,-1.51A1.51,1.51 0 0,1 1.51,0Z" style="opacity: 0.35; stroke-width: 0px; fill: rgb(24, 15, 62); fill-opacity: 1;"/><path class="point" transform="translate(117.58,22.73)" d="M1.51,0A1.51,1.51 0 1,1 0,-1.51A1.51,1.51 0 0,1 1.51,0Z" style="opacity: 0.35; stroke-width: 0px; fill: rgb(24, 15, 62); fill-opacity: 1;"/><path class="point" transform="translate(130.21,22.73)" d="M1.51,0A1.51,1.51 0 1,1 0,-1.51A1.51,1.51 0 0,1 1.51,0Z" style="opacity: 0.35; stroke-width: 0px; fill: rgb(24, 15, 62); fill-opacity: 1;"/><path class="point" transform="translate(109.31,378.06)" d="M1.51,0A1.51,1.51 0 1,1 0,-1.51A1.51,1.51 0 0,1 1.51,0Z" style="opacity: 0.35; stroke-width: 0px; fill: rgb(24, 15, 62); fill-opacity: 1;"/><path class="point" transform="translate(110.05,22.73)" d="M1.51,0A1.51,1.51 0 1,1 0,-1.51A1.51,1.51 0 0,1 1.51,0Z" style="opacity: 0.35; stroke-width: 0px; fill: rgb(24, 15, 62); fill-opacity: 1;"/><path class="point" transform="translate(113.73,378.06)" d="M1.51,0A1.51,1.51 0 1,1 0,-1.51A1.51,1.51 0 0,1 1.51,0Z" style="opacity: 0.35; stroke-width: 0px; fill: rgb(24, 15, 62); fill-opacity: 1;"/><path class="point" transform="translate(115.65,22.73)" d="M1.51,0A1.51,1.51 0 1,1 0,-1.51A1.51,1.51 0 0,1 1.51,0Z" style="opacity: 0.35; stroke-width: 0px; fill: rgb(24, 15, 62); fill-opacity: 1;"/><path class="point" transform="translate(112.25,22.73)" d="M1.51,0A1.51,1.51 0 1,1 0,-1.51A1.51,1.51 0 0,1 1.51,0Z" style="opacity: 0.35; stroke-width: 0px; fill: rgb(24, 15, 62); fill-opacity: 1;"/><path class="point" transform="translate(115.86,131.34)" d="M1.51,0A1.51,1.51 0 1,1 0,-1.51A1.51,1.51 0 0,1 1.51,0Z" style="opacity: 0.35; stroke-width: 0px; fill: rgb(24, 15, 62); fill-opacity: 1;"/><path class="point" transform="translate(116.17,22.73)" d="M1.51,0A1.51,1.51 0 1,1 0,-1.51A1.51,1.51 0 0,1 1.51,0Z" style="opacity: 0.35; stroke-width: 0px; fill: rgb(24, 15, 62); fill-opacity: 1;"/><path class="point" transform="translate(118.52,22.73)" d="M1.51,0A1.51,1.51 0 1,1 0,-1.51A1.51,1.51 0 0,1 1.51,0Z" style="opacity: 0.35; stroke-width: 0px; fill: rgb(24, 15, 62); fill-opacity: 1;"/><path class="point" transform="translate(121.7,38.71)" d="M1.51,0A1.51,1.51 0 1,1 0,-1.51A1.51,1.51 0 0,1 1.51,0Z" style="opacity: 0.35; stroke-width: 0px; fill: rgb(24, 15, 62); fill-opacity: 1;"/><path class="point" transform="translate(111.82,374.38)" d="M1.51,0A1.51,1.51 0 1,1 0,-1.51A1.51,1.51 0 0,1 1.51,0Z" style="opacity: 0.35; stroke-width: 0px; fill: rgb(24, 15, 62); fill-opacity: 1;"/><path class="point" transform="translate(121.67,22.73)" d="M1.51,0A1.51,1.51 0 1,1 0,-1.51A1.51,1.51 0 0,1 1.51,0Z" style="opacity: 0.35; stroke-width: 0px; fill: rgb(24, 15, 62); fill-opacity: 1;"/><path class="point" transform="translate(122.28,335.03)" d="M1.51,0A1.51,1.51 0 1,1 0,-1.51A1.51,1.51 0 0,1 1.51,0Z" style="opacity: 0.35; stroke-width: 0px; fill: rgb(24, 15, 62); fill-opacity: 1;"/><path class="point" transform="translate(127.56,145.24)" d="M1.51,0A1.51,1.51 0 1,1 0,-1.51A1.51,1.51 0 0,1 1.51,0Z" style="opacity: 0.35; stroke-width: 0px; fill: rgb(24, 15, 62); fill-opacity: 1;"/><path class="point" transform="translate(126.22,22.73)" d="M1.51,0A1.51,1.51 0 1,1 0,-1.51A1.51,1.51 0 0,1 1.51,0Z" style="opacity: 0.35; stroke-width: 0px; fill: rgb(24, 15, 62); fill-opacity: 1;"/><path class="point" transform="translate(114.71,378.06)" d="M1.51,0A1.51,1.51 0 1,1 0,-1.51A1.51,1.51 0 0,1 1.51,0Z" style="opacity: 0.35; stroke-width: 0px; fill: rgb(24, 15, 62); fill-opacity: 1;"/><path class="point" transform="translate(109.75,22.73)" d="M1.51,0A1.51,1.51 0 1,1 0,-1.51A1.51,1.51 0 0,1 1.51,0Z" style="opacity: 0.35; stroke-width: 0px; fill: rgb(24, 15, 62); fill-opacity: 1;"/><path class="point" transform="translate(127.62,22.73)" d="M1.51,0A1.51,1.51 0 1,1 0,-1.51A1.51,1.51 0 0,1 1.51,0Z" style="opacity: 0.35; stroke-width: 0px; fill: rgb(24, 15, 62); fill-opacity: 1;"/><path class="point" transform="translate(124.69,22.73)" d="M1.51,0A1.51,1.51 0 1,1 0,-1.51A1.51,1.51 0 0,1 1.51,0Z" style="opacity: 0.35; stroke-width: 0px; fill: rgb(24, 15, 62); fill-opacity: 1;"/><path class="point" transform="translate(125.63,363.62)" d="M1.51,0A1.51,1.51 0 1,1 0,-1.51A1.51,1.51 0 0,1 1.51,0Z" style="opacity: 0.35; stroke-width: 0px; fill: rgb(24, 15, 62); fill-opacity: 1;"/><path class="point" transform="translate(126.39,22.73)" d="M1.51,0A1.51,1.51 0 1,1 0,-1.51A1.51,1.51 0 0,1 1.51,0Z" style="opacity: 0.35; stroke-width: 0px; fill: rgb(24, 15, 62); fill-opacity: 1;"/><path class="point" transform="translate(112.86,22.73)" d="M1.51,0A1.51,1.51 0 1,1 0,-1.51A1.51,1.51 0 0,1 1.51,0Z" style="opacity: 0.35; stroke-width: 0px; fill: rgb(24, 15, 62); fill-opacity: 1;"/><path class="point" transform="translate(109.19,374.38)" d="M1.51,0A1.51,1.51 0 1,1 0,-1.51A1.51,1.51 0 0,1 1.51,0Z" style="opacity: 0.35; stroke-width: 0px; fill: rgb(24, 15, 62); fill-opacity: 1;"/><path class="point" transform="translate(118.46,22.73)" d="M1.51,0A1.51,1.51 0 1,1 0,-1.51A1.51,1.51 0 0,1 1.51,0Z" style="opacity: 0.35; stroke-width: 0px; fill: rgb(24, 15, 62); fill-opacity: 1;"/><path class="point" transform="translate(117,182.29)" d="M1.51,0A1.51,1.51 0 1,1 0,-1.51A1.51,1.51 0 0,1 1.51,0Z" style="opacity: 0.35; stroke-width: 0px; fill: rgb(24, 15, 62); fill-opacity: 1;"/><path class="point" transform="translate(117.9,33.31)" d="M1.51,0A1.51,1.51 0 1,1 0,-1.51A1.51,1.51 0 0,1 1.51,0Z" style="opacity: 0.35; stroke-width: 0px; fill: rgb(24, 15, 62); fill-opacity: 1;"/><path class="point" transform="translate(127.96,182.29)" d="M1.51,0A1.51,1.51 0 1,1 0,-1.51A1.51,1.51 0 0,1 1.51,0Z" style="opacity: 0.35; stroke-width: 0px; fill: rgb(24, 15, 62); fill-opacity: 1;"/><path class="point" transform="translate(120.64,31.74)" d="M1.51,0A1.51,1.51 0 1,1 0,-1.51A1.51,1.51 0 0,1 1.51,0Z" style="opacity: 0.35; stroke-width: 0px; fill: rgb(24, 15, 62); fill-opacity: 1;"/><path class="point" transform="translate(112.6,22.73)" d="M1.51,0A1.51,1.51 0 1,1 0,-1.51A1.51,1.51 0 0,1 1.51,0Z" style="opacity: 0.35; stroke-width: 0px; fill: rgb(24, 15, 62); fill-opacity: 1;"/><path class="point" transform="translate(124.22,22.73)" d="M1.51,0A1.51,1.51 0 1,1 0,-1.51A1.51,1.51 0 0,1 1.51,0Z" style="opacity: 0.35; stroke-width: 0px; fill: rgb(24, 15, 62); fill-opacity: 1;"/><path class="point" transform="translate(130.98,22.73)" d="M1.51,0A1.51,1.51 0 1,1 0,-1.51A1.51,1.51 0 0,1 1.51,0Z" style="opacity: 0.35; stroke-width: 0px; fill: rgb(24, 15, 62); fill-opacity: 1;"/><path class="point" transform="translate(130.37,22.73)" d="M1.51,0A1.51,1.51 0 1,1 0,-1.51A1.51,1.51 0 0,1 1.51,0Z" style="opacity: 0.35; stroke-width: 0px; fill: rgb(24, 15, 62); fill-opacity: 1;"/><path class="point" transform="translate(113.08,22.73)" d="M1.51,0A1.51,1.51 0 1,1 0,-1.51A1.51,1.51 0 0,1 1.51,0Z" style="opacity: 0.35; stroke-width: 0px; fill: rgb(24, 15, 62); fill-opacity: 1;"/><path class="point" transform="translate(129.29,255.36)" d="M1.51,0A1.51,1.51 0 1,1 0,-1.51A1.51,1.51 0 0,1 1.51,0Z" style="opacity: 0.35; stroke-width: 0px; fill: rgb(24, 15, 62); fill-opacity: 1;"/><path class="point" transform="translate(128.34,22.73)" d="M1.51,0A1.51,1.51 0 1,1 0,-1.51A1.51,1.51 0 0,1 1.51,0Z" style="opacity: 0.35; stroke-width: 0px; fill: rgb(24, 15, 62); fill-opacity: 1;"/><path class="point" transform="translate(128.93,22.73)" d="M1.51,0A1.51,1.51 0 1,1 0,-1.51A1.51,1.51 0 0,1 1.51,0Z" style="opacity: 0.35; stroke-width: 0px; fill: rgb(24, 15, 62); fill-opacity: 1;"/><path class="point" transform="translate(120.57,22.73)" d="M1.51,0A1.51,1.51 0 1,1 0,-1.51A1.51,1.51 0 0,1 1.51,0Z" style="opacity: 0.35; stroke-width: 0px; fill: rgb(24, 15, 62); fill-opacity: 1;"/><path class="point" transform="translate(121.44,22.73)" d="M1.51,0A1.51,1.51 0 1,1 0,-1.51A1.51,1.51 0 0,1 1.51,0Z" style="opacity: 0.35; stroke-width: 0px; fill: rgb(24, 15, 62); fill-opacity: 1;"/><path class="point" transform="translate(115.34,22.73)" d="M1.51,0A1.51,1.51 0 1,1 0,-1.51A1.51,1.51 0 0,1 1.51,0Z" style="opacity: 0.35; stroke-width: 0px; fill: rgb(24, 15, 62); fill-opacity: 1;"/><path class="point" transform="translate(128.71,22.73)" d="M1.51,0A1.51,1.51 0 1,1 0,-1.51A1.51,1.51 0 0,1 1.51,0Z" style="opacity: 0.35; stroke-width: 0px; fill: rgb(24, 15, 62); fill-opacity: 1;"/><path class="point" transform="translate(120.51,31.74)" d="M1.51,0A1.51,1.51 0 1,1 0,-1.51A1.51,1.51 0 0,1 1.51,0Z" style="opacity: 0.35; stroke-width: 0px; fill: rgb(24, 15, 62); fill-opacity: 1;"/><path class="point" transform="translate(113.02,22.73)" d="M1.51,0A1.51,1.51 0 1,1 0,-1.51A1.51,1.51 0 0,1 1.51,0Z" style="opacity: 0.35; stroke-width: 0px; fill: rgb(24, 15, 62); fill-opacity: 1;"/><path class="point" transform="translate(128.33,22.73)" d="M1.51,0A1.51,1.51 0 1,1 0,-1.51A1.51,1.51 0 0,1 1.51,0Z" style="opacity: 0.35; stroke-width: 0px; fill: rgb(24, 15, 62); fill-opacity: 1;"/><path class="point" transform="translate(116.4,145.24)" d="M1.51,0A1.51,1.51 0 1,1 0,-1.51A1.51,1.51 0 0,1 1.51,0Z" style="opacity: 0.35; stroke-width: 0px; fill: rgb(24, 15, 62); fill-opacity: 1;"/><path class="point" transform="translate(123.44,22.73)" d="M1.51,0A1.51,1.51 0 1,1 0,-1.51A1.51,1.51 0 0,1 1.51,0Z" style="opacity: 0.35; stroke-width: 0px; fill: rgb(24, 15, 62); fill-opacity: 1;"/><path class="point" transform="translate(126.62,22.73)" d="M1.51,0A1.51,1.51 0 1,1 0,-1.51A1.51,1.51 0 0,1 1.51,0Z" style="opacity: 0.35; stroke-width: 0px; fill: rgb(24, 15, 62); fill-opacity: 1;"/><path class="point" transform="translate(120.91,22.73)" d="M1.51,0A1.51,1.51 0 1,1 0,-1.51A1.51,1.51 0 0,1 1.51,0Z" style="opacity: 0.35; stroke-width: 0px; fill: rgb(24, 15, 62); fill-opacity: 1;"/><path class="point" transform="translate(109.35,22.73)" d="M1.51,0A1.51,1.51 0 1,1 0,-1.51A1.51,1.51 0 0,1 1.51,0Z" style="opacity: 0.35; stroke-width: 0px; fill: rgb(24, 15, 62); fill-opacity: 1;"/><path class="point" transform="translate(130.94,296.11)" d="M1.51,0A1.51,1.51 0 1,1 0,-1.51A1.51,1.51 0 0,1 1.51,0Z" style="opacity: 0.35; stroke-width: 0px; fill: rgb(24, 15, 62); fill-opacity: 1;"/><path class="point" transform="translate(112.15,22.73)" d="M1.51,0A1.51,1.51 0 1,1 0,-1.51A1.51,1.51 0 0,1 1.51,0Z" style="opacity: 0.35; stroke-width: 0px; fill: rgb(24, 15, 62); fill-opacity: 1;"/><path class="point" transform="translate(113.3,22.73)" d="M1.51,0A1.51,1.51 0 1,1 0,-1.51A1.51,1.51 0 0,1 1.51,0Z" style="opacity: 0.35; stroke-width: 0px; fill: rgb(24, 15, 62); fill-opacity: 1;"/><path class="point" transform="translate(119.21,22.73)" d="M1.51,0A1.51,1.51 0 1,1 0,-1.51A1.51,1.51 0 0,1 1.51,0Z" style="opacity: 0.35; stroke-width: 0px; fill: rgb(24, 15, 62); fill-opacity: 1;"/><path class="point" transform="translate(117.87,22.73)" d="M1.51,0A1.51,1.51 0 1,1 0,-1.51A1.51,1.51 0 0,1 1.51,0Z" style="opacity: 0.35; stroke-width: 0px; fill: rgb(24, 15, 62); fill-opacity: 1;"/><path class="point" transform="translate(122.49,308.44)" d="M1.51,0A1.51,1.51 0 1,1 0,-1.51A1.51,1.51 0 0,1 1.51,0Z" style="opacity: 0.35; stroke-width: 0px; fill: rgb(24, 15, 62); fill-opacity: 1;"/><path class="point" transform="translate(115.15,22.73)" d="M1.51,0A1.51,1.51 0 1,1 0,-1.51A1.51,1.51 0 0,1 1.51,0Z" style="opacity: 0.35; stroke-width: 0px; fill: rgb(24, 15, 62); fill-opacity: 1;"/><path class="point" transform="translate(117.23,372.52)" d="M1.51,0A1.51,1.51 0 1,1 0,-1.51A1.51,1.51 0 0,1 1.51,0Z" style="opacity: 0.35; stroke-width: 0px; fill: rgb(24, 15, 62); fill-opacity: 1;"/><path class="point" transform="translate(126.89,22.73)" d="M1.51,0A1.51,1.51 0 1,1 0,-1.51A1.51,1.51 0 0,1 1.51,0Z" style="opacity: 0.35; stroke-width: 0px; fill: rgb(24, 15, 62); fill-opacity: 1;"/><path class="point" transform="translate(117.69,31.74)" d="M1.51,0A1.51,1.51 0 1,1 0,-1.51A1.51,1.51 0 0,1 1.51,0Z" style="opacity: 0.35; stroke-width: 0px; fill: rgb(24, 15, 62); fill-opacity: 1;"/><path class="point" transform="translate(117.25,22.73)" d="M1.51,0A1.51,1.51 0 1,1 0,-1.51A1.51,1.51 0 0,1 1.51,0Z" style="opacity: 0.35; stroke-width: 0px; fill: rgb(24, 15, 62); fill-opacity: 1;"/><path class="point" transform="translate(122.96,22.73)" d="M1.51,0A1.51,1.51 0 1,1 0,-1.51A1.51,1.51 0 0,1 1.51,0Z" style="opacity: 0.35; stroke-width: 0px; fill: rgb(24, 15, 62); fill-opacity: 1;"/><path class="point" transform="translate(113.08,22.73)" d="M1.51,0A1.51,1.51 0 1,1 0,-1.51A1.51,1.51 0 0,1 1.51,0Z" style="opacity: 0.35; stroke-width: 0px; fill: rgb(24, 15, 62); fill-opacity: 1;"/><path class="point" transform="translate(109.8,22.73)" d="M1.51,0A1.51,1.51 0 1,1 0,-1.51A1.51,1.51 0 0,1 1.51,0Z" style="opacity: 0.35; stroke-width: 0px; fill: rgb(24, 15, 62); fill-opacity: 1;"/><path class="point" transform="translate(123.21,22.73)" d="M1.51,0A1.51,1.51 0 1,1 0,-1.51A1.51,1.51 0 0,1 1.51,0Z" style="opacity: 0.35; stroke-width: 0px; fill: rgb(24, 15, 62); fill-opacity: 1;"/><path class="point" transform="translate(113.52,379.17)" d="M1.51,0A1.51,1.51 0 1,1 0,-1.51A1.51,1.51 0 0,1 1.51,0Z" style="opacity: 0.35; stroke-width: 0px; fill: rgb(24, 15, 62); fill-opacity: 1;"/><path class="point" transform="translate(120.94,145.24)" d="M1.51,0A1.51,1.51 0 1,1 0,-1.51A1.51,1.51 0 0,1 1.51,0Z" style="opacity: 0.35; stroke-width: 0px; fill: rgb(24, 15, 62); fill-opacity: 1;"/><path class="point" transform="translate(115.77,107.93)" d="M1.51,0A1.51,1.51 0 1,1 0,-1.51A1.51,1.51 0 0,1 1.51,0Z" style="opacity: 0.35; stroke-width: 0px; fill: rgb(24, 15, 62); fill-opacity: 1;"/><path class="point" transform="translate(112.42,107.93)" d="M1.51,0A1.51,1.51 0 1,1 0,-1.51A1.51,1.51 0 0,1 1.51,0Z" style="opacity: 0.35; stroke-width: 0px; fill: rgb(24, 15, 62); fill-opacity: 1;"/><path class="point" transform="translate(128.62,22.73)" d="M1.51,0A1.51,1.51 0 1,1 0,-1.51A1.51,1.51 0 0,1 1.51,0Z" style="opacity: 0.35; stroke-width: 0px; fill: rgb(24, 15, 62); fill-opacity: 1;"/><path class="point" transform="translate(131.55,89.64)" d="M1.51,0A1.51,1.51 0 1,1 0,-1.51A1.51,1.51 0 0,1 1.51,0Z" style="opacity: 0.35; stroke-width: 0px; fill: rgb(24, 15, 62); fill-opacity: 1;"/><path class="point" transform="translate(130.34,22.73)" d="M1.51,0A1.51,1.51 0 1,1 0,-1.51A1.51,1.51 0 0,1 1.51,0Z" style="opacity: 0.35; stroke-width: 0px; fill: rgb(24, 15, 62); fill-opacity: 1;"/><path class="point" transform="translate(119.94,107.93)" d="M1.51,0A1.51,1.51 0 1,1 0,-1.51A1.51,1.51 0 0,1 1.51,0Z" style="opacity: 0.35; stroke-width: 0px; fill: rgb(24, 15, 62); fill-opacity: 1;"/><path class="point" transform="translate(126.95,182.29)" d="M1.51,0A1.51,1.51 0 1,1 0,-1.51A1.51,1.51 0 0,1 1.51,0Z" style="opacity: 0.35; stroke-width: 0px; fill: rgb(24, 15, 62); fill-opacity: 1;"/><path class="point" transform="translate(122.46,378.8)" d="M1.51,0A1.51,1.51 0 1,1 0,-1.51A1.51,1.51 0 0,1 1.51,0Z" style="opacity: 0.35; stroke-width: 0px; fill: rgb(24, 15, 62); fill-opacity: 1;"/><path class="point" transform="translate(110.97,22.73)" d="M1.51,0A1.51,1.51 0 1,1 0,-1.51A1.51,1.51 0 0,1 1.51,0Z" style="opacity: 0.35; stroke-width: 0px; fill: rgb(24, 15, 62); fill-opacity: 1;"/><path class="point" transform="translate(112.64,22.73)" d="M1.51,0A1.51,1.51 0 1,1 0,-1.51A1.51,1.51 0 0,1 1.51,0Z" style="opacity: 0.35; stroke-width: 0px; fill: rgb(24, 15, 62); fill-opacity: 1;"/><path class="point" transform="translate(120.22,184.45)" d="M1.51,0A1.51,1.51 0 1,1 0,-1.51A1.51,1.51 0 0,1 1.51,0Z" style="opacity: 0.35; stroke-width: 0px; fill: rgb(24, 15, 62); fill-opacity: 1;"/><path class="point" transform="translate(118.26,52.92)" d="M1.51,0A1.51,1.51 0 1,1 0,-1.51A1.51,1.51 0 0,1 1.51,0Z" style="opacity: 0.35; stroke-width: 0px; fill: rgb(24, 15, 62); fill-opacity: 1;"/></g><g class="text"/></g><g class="trace scatter tracef27efd" style="stroke-miterlimit: 2; opacity: 1;"><g class="fills"/><g class="errorbars"/><g class="lines"/><g class="points"><path class="point" transform="translate(193.83,322.05)" d="M1.51,0A1.51,1.51 0 1,1 0,-1.51A1.51,1.51 0 0,1 1.51,0Z" style="opacity: 0.35; stroke-width: 0px; fill: rgb(69, 16, 119); fill-opacity: 1;"/><path class="point" transform="translate(202.2,147.05)" d="M1.51,0A1.51,1.51 0 1,1 0,-1.51A1.51,1.51 0 0,1 1.51,0Z" style="opacity: 0.35; stroke-width: 0px; fill: rgb(69, 16, 119); fill-opacity: 1;"/><path class="point" transform="translate(187.32,322.05)" d="M1.51,0A1.51,1.51 0 1,1 0,-1.51A1.51,1.51 0 0,1 1.51,0Z" style="opacity: 0.35; stroke-width: 0px; fill: rgb(69, 16, 119); fill-opacity: 1;"/><path class="point" transform="translate(204.91,147.05)" d="M1.51,0A1.51,1.51 0 1,1 0,-1.51A1.51,1.51 0 0,1 1.51,0Z" style="opacity: 0.35; stroke-width: 0px; fill: rgb(69, 16, 119); fill-opacity: 1;"/><path class="point" transform="translate(199.98,184.05)" d="M1.51,0A1.51,1.51 0 1,1 0,-1.51A1.51,1.51 0 0,1 1.51,0Z" style="opacity: 0.35; stroke-width: 0px; fill: rgb(69, 16, 119); fill-opacity: 1;"/><path class="point" transform="translate(186.72,184.05)" d="M1.51,0A1.51,1.51 0 1,1 0,-1.51A1.51,1.51 0 0,1 1.51,0Z" style="opacity: 0.35; stroke-width: 0px; fill: rgb(69, 16, 119); fill-opacity: 1;"/><path class="point" transform="translate(198.76,359.73)" d="M1.51,0A1.51,1.51 0 1,1 0,-1.51A1.51,1.51 0 0,1 1.51,0Z" style="opacity: 0.35; stroke-width: 0px; fill: rgb(69, 16, 119); fill-opacity: 1;"/><path class="point" transform="translate(184.6,184.05)" d="M1.51,0A1.51,1.51 0 1,1 0,-1.51A1.51,1.51 0 0,1 1.51,0Z" style="opacity: 0.35; stroke-width: 0px; fill: rgb(69, 16, 119); fill-opacity: 1;"/><path class="point" transform="translate(189.51,307.87)" d="M1.51,0A1.51,1.51 0 1,1 0,-1.51A1.51,1.51 0 0,1 1.51,0Z" style="opacity: 0.35; stroke-width: 0px; fill: rgb(69, 16, 119); fill-opacity: 1;"/><path class="point" transform="translate(204.75,239.59)" d="M1.51,0A1.51,1.51 0 1,1 0,-1.51A1.51,1.51 0 0,1 1.51,0Z" style="opacity: 0.35; stroke-width: 0px; fill: rgb(69, 16, 119); fill-opacity: 1;"/><path class="point" transform="translate(193.39,184.05)" d="M1.51,0A1.51,1.51 0 1,1 0,-1.51A1.51,1.51 0 0,1 1.51,0Z" style="opacity: 0.35; stroke-width: 0px; fill: rgb(69, 16, 119); fill-opacity: 1;"/><path class="point" transform="translate(191.02,322.05)" d="M1.51,0A1.51,1.51 0 1,1 0,-1.51A1.51,1.51 0 0,1 1.51,0Z" style="opacity: 0.35; stroke-width: 0px; fill: rgb(69, 16, 119); fill-opacity: 1;"/><path class="point" transform="translate(199.54,322.05)" d="M1.51,0A1.51,1.51 0 1,1 0,-1.51A1.51,1.51 0 0,1 1.51,0Z" style="opacity: 0.35; stroke-width: 0px; fill: rgb(69, 16, 119); fill-opacity: 1;"/><path class="point" transform="translate(188.18,323.8)" d="M1.51,0A1.51,1.51 0 1,1 0,-1.51A1.51,1.51 0 0,1 1.51,0Z" style="opacity: 0.35; stroke-width: 0px; fill: rgb(69, 16, 119); fill-opacity: 1;"/><path class="point" transform="translate(201.4,147.05)" d="M1.51,0A1.51,1.51 0 1,1 0,-1.51A1.51,1.51 0 0,1 1.51,0Z" style="opacity: 0.35; stroke-width: 0px; fill: rgb(69, 16, 119); fill-opacity: 1;"/><path class="point" transform="translate(189.47,22.73)" d="M1.51,0A1.51,1.51 0 1,1 0,-1.51A1.51,1.51 0 0,1 1.51,0Z" style="opacity: 0.35; stroke-width: 0px; fill: rgb(69, 16, 119); fill-opacity: 1;"/><path class="point" transform="translate(188.09,22.73)" d="M1.51,0A1.51,1.51 0 1,1 0,-1.51A1.51,1.51 0 0,1 1.51,0Z" style="opacity: 0.35; stroke-width: 0px; fill: rgb(69, 16, 119); fill-opacity: 1;"/><path class="point" transform="translate(205.12,307.87)" d="M1.51,0A1.51,1.51 0 1,1 0,-1.51A1.51,1.51 0 0,1 1.51,0Z" style="opacity: 0.35; stroke-width: 0px; fill: rgb(69, 16, 119); fill-opacity: 1;"/><path class="point" transform="translate(205.82,22.73)" d="M1.51,0A1.51,1.51 0 1,1 0,-1.51A1.51,1.51 0 0,1 1.51,0Z" style="opacity: 0.35; stroke-width: 0px; fill: rgb(69, 16, 119); fill-opacity: 1;"/><path class="point" transform="translate(199.39,22.73)" d="M1.51,0A1.51,1.51 0 1,1 0,-1.51A1.51,1.51 0 0,1 1.51,0Z" style="opacity: 0.35; stroke-width: 0px; fill: rgb(69, 16, 119); fill-opacity: 1;"/></g><g class="text"/></g><g class="trace scatter tracebc0aa7" style="stroke-miterlimit: 2; opacity: 1;"><g class="fills"/><g class="errorbars"/><g class="lines"/><g class="points"><path class="point" transform="translate(262.58,22.73)" d="M1.51,0A1.51,1.51 0 1,1 0,-1.51A1.51,1.51 0 0,1 1.51,0Z" style="opacity: 0.35; stroke-width: 0px; fill: rgb(114, 31, 129); fill-opacity: 1;"/></g><g class="text"/></g><g class="trace scatter trace0f9325" style="stroke-miterlimit: 2; opacity: 1;"><g class="fills"/><g class="errorbars"/><g class="lines"/><g class="points"><path class="point" transform="translate(340.72,336.37)" d="M1.51,0A1.51,1.51 0 1,1 0,-1.51A1.51,1.51 0 0,1 1.51,0Z" style="opacity: 0.35; stroke-width: 0px; fill: rgb(159, 47, 127); fill-opacity: 1;"/><path class="point" transform="translate(335.96,278.7)" d="M1.51,0A1.51,1.51 0 1,1 0,-1.51A1.51,1.51 0 0,1 1.51,0Z" style="opacity: 0.35; stroke-width: 0px; fill: rgb(159, 47, 127); fill-opacity: 1;"/><path class="point" transform="translate(344.37,354.04)" d="M1.51,0A1.51,1.51 0 1,1 0,-1.51A1.51,1.51 0 0,1 1.51,0Z" style="opacity: 0.35; stroke-width: 0px; fill: rgb(159, 47, 127); fill-opacity: 1;"/><path class="point" transform="translate(343.43,310.39)" d="M1.51,0A1.51,1.51 0 1,1 0,-1.51A1.51,1.51 0 0,1 1.51,0Z" style="opacity: 0.35; stroke-width: 0px; fill: rgb(159, 47, 127); fill-opacity: 1;"/><path class="point" transform="translate(349.94,246.34)" d="M1.51,0A1.51,1.51 0 1,1 0,-1.51A1.51,1.51 0 0,1 1.51,0Z" style="opacity: 0.35; stroke-width: 0px; fill: rgb(159, 47, 127); fill-opacity: 1;"/><path class="point" transform="translate(339.38,246.34)" d="M1.51,0A1.51,1.51 0 1,1 0,-1.51A1.51,1.51 0 0,1 1.51,0Z" style="opacity: 0.35; stroke-width: 0px; fill: rgb(159, 47, 127); fill-opacity: 1;"/><path class="point" transform="translate(345.08,251.84)" d="M1.51,0A1.51,1.51 0 1,1 0,-1.51A1.51,1.51 0 0,1 1.51,0Z" style="opacity: 0.35; stroke-width: 0px; fill: rgb(159, 47, 127); fill-opacity: 1;"/><path class="point" transform="translate(353.47,253.85)" d="M1.51,0A1.51,1.51 0 1,1 0,-1.51A1.51,1.51 0 0,1 1.51,0Z" style="opacity: 0.35; stroke-width: 0px; fill: rgb(159, 47, 127); fill-opacity: 1;"/><path class="point" transform="translate(356.69,182.26)" d="M1.51,0A1.51,1.51 0 1,1 0,-1.51A1.51,1.51 0 0,1 1.51,0Z" style="opacity: 0.35; stroke-width: 0px; fill: rgb(159, 47, 127); fill-opacity: 1;"/><path class="point" transform="translate(335.48,237.32)" d="M1.51,0A1.51,1.51 0 1,1 0,-1.51A1.51,1.51 0 0,1 1.51,0Z" style="opacity: 0.35; stroke-width: 0px; fill: rgb(159, 47, 127); fill-opacity: 1;"/><path class="point" transform="translate(357.14,215.81)" d="M1.51,0A1.51,1.51 0 1,1 0,-1.51A1.51,1.51 0 0,1 1.51,0Z" style="opacity: 0.35; stroke-width: 0px; fill: rgb(159, 47, 127); fill-opacity: 1;"/><path class="point" transform="translate(340.93,217.3)" d="M1.51,0A1.51,1.51 0 1,1 0,-1.51A1.51,1.51 0 0,1 1.51,0Z" style="opacity: 0.35; stroke-width: 0px; fill: rgb(159, 47, 127); fill-opacity: 1;"/><path class="point" transform="translate(350.66,236.61)" d="M1.51,0A1.51,1.51 0 1,1 0,-1.51A1.51,1.51 0 0,1 1.51,0Z" style="opacity: 0.35; stroke-width: 0px; fill: rgb(159, 47, 127); fill-opacity: 1;"/><path class="point" transform="translate(354.46,221.78)" d="M1.51,0A1.51,1.51 0 1,1 0,-1.51A1.51,1.51 0 0,1 1.51,0Z" style="opacity: 0.35; stroke-width: 0px; fill: rgb(159, 47, 127); fill-opacity: 1;"/><path class="point" transform="translate(341.59,221.78)" d="M1.51,0A1.51,1.51 0 1,1 0,-1.51A1.51,1.51 0 0,1 1.51,0Z" style="opacity: 0.35; stroke-width: 0px; fill: rgb(159, 47, 127); fill-opacity: 1;"/><path class="point" transform="translate(348.46,147.18)" d="M1.51,0A1.51,1.51 0 1,1 0,-1.51A1.51,1.51 0 0,1 1.51,0Z" style="opacity: 0.35; stroke-width: 0px; fill: rgb(159, 47, 127); fill-opacity: 1;"/><path class="point" transform="translate(343.41,209.55)" d="M1.51,0A1.51,1.51 0 1,1 0,-1.51A1.51,1.51 0 0,1 1.51,0Z" style="opacity: 0.35; stroke-width: 0px; fill: rgb(159, 47, 127); fill-opacity: 1;"/></g><g class="text"/></g><g class="trace scatter tracedee6c2" style="stroke-miterlimit: 2; opacity: 1;"><g class="fills"/><g class="errorbars"/><g class="lines"/><g class="points"><path class="point" transform="translate(495.93,54.66)" d="M1.51,0A1.51,1.51 0 1,1 0,-1.51A1.51,1.51 0 0,1 1.51,0Z" style="opacity: 0.35; stroke-width: 0px; fill: rgb(241, 96, 93); fill-opacity: 1;"/><path class="point" transform="translate(508.23,45.1)" d="M1.51,0A1.51,1.51 0 1,1 0,-1.51A1.51,1.51 0 0,1 1.51,0Z" style="opacity: 0.35; stroke-width: 0px; fill: rgb(241, 96, 93); fill-opacity: 1;"/><path class="point" transform="translate(506.89,22.73)" d="M1.51,0A1.51,1.51 0 1,1 0,-1.51A1.51,1.51 0 0,1 1.51,0Z" style="opacity: 0.35; stroke-width: 0px; fill: rgb(241, 96, 93); fill-opacity: 1;"/><path class="point" transform="translate(495.53,22.73)" d="M1.51,0A1.51,1.51 0 1,1 0,-1.51A1.51,1.51 0 0,1 1.51,0Z" style="opacity: 0.35; stroke-width: 0px; fill: rgb(241, 96, 93); fill-opacity: 1;"/><path class="point" transform="translate(507.06,22.73)" d="M1.51,0A1.51,1.51 0 1,1 0,-1.51A1.51,1.51 0 0,1 1.51,0Z" style="opacity: 0.35; stroke-width: 0px; fill: rgb(241, 96, 93); fill-opacity: 1;"/><path class="point" transform="translate(490.74,22.73)" d="M1.51,0A1.51,1.51 0 1,1 0,-1.51A1.51,1.51 0 0,1 1.51,0Z" style="opacity: 0.35; stroke-width: 0px; fill: rgb(241, 96, 93); fill-opacity: 1;"/><path class="point" transform="translate(507.19,22.73)" d="M1.51,0A1.51,1.51 0 1,1 0,-1.51A1.51,1.51 0 0,1 1.51,0Z" style="opacity: 0.35; stroke-width: 0px; fill: rgb(241, 96, 93); fill-opacity: 1;"/><path class="point" transform="translate(496.62,43.59)" d="M1.51,0A1.51,1.51 0 1,1 0,-1.51A1.51,1.51 0 0,1 1.51,0Z" style="opacity: 0.35; stroke-width: 0px; fill: rgb(241, 96, 93); fill-opacity: 1;"/><path class="point" transform="translate(501.51,22.73)" d="M1.51,0A1.51,1.51 0 1,1 0,-1.51A1.51,1.51 0 0,1 1.51,0Z" style="opacity: 0.35; stroke-width: 0px; fill: rgb(241, 96, 93); fill-opacity: 1;"/><path class="point" transform="translate(505.12,22.73)" d="M1.51,0A1.51,1.51 0 1,1 0,-1.51A1.51,1.51 0 0,1 1.51,0Z" style="opacity: 0.35; stroke-width: 0px; fill: rgb(241, 96, 93); fill-opacity: 1;"/><path class="point" transform="translate(494.28,22.73)" d="M1.51,0A1.51,1.51 0 1,1 0,-1.51A1.51,1.51 0 0,1 1.51,0Z" style="opacity: 0.35; stroke-width: 0px; fill: rgb(241, 96, 93); fill-opacity: 1;"/><path class="point" transform="translate(487.85,22.73)" d="M1.51,0A1.51,1.51 0 1,1 0,-1.51A1.51,1.51 0 0,1 1.51,0Z" style="opacity: 0.35; stroke-width: 0px; fill: rgb(241, 96, 93); fill-opacity: 1;"/><path class="point" transform="translate(499.4,22.73)" d="M1.51,0A1.51,1.51 0 1,1 0,-1.51A1.51,1.51 0 0,1 1.51,0Z" style="opacity: 0.35; stroke-width: 0px; fill: rgb(241, 96, 93); fill-opacity: 1;"/><path class="point" transform="translate(498.88,42.9)" d="M1.51,0A1.51,1.51 0 1,1 0,-1.51A1.51,1.51 0 0,1 1.51,0Z" style="opacity: 0.35; stroke-width: 0px; fill: rgb(241, 96, 93); fill-opacity: 1;"/><path class="point" transform="translate(503.88,22.73)" d="M1.51,0A1.51,1.51 0 1,1 0,-1.51A1.51,1.51 0 0,1 1.51,0Z" style="opacity: 0.35; stroke-width: 0px; fill: rgb(241, 96, 93); fill-opacity: 1;"/><path class="point" transform="translate(504.72,22.73)" d="M1.51,0A1.51,1.51 0 1,1 0,-1.51A1.51,1.51 0 0,1 1.51,0Z" style="opacity: 0.35; stroke-width: 0px; fill: rgb(241, 96, 93); fill-opacity: 1;"/><path class="point" transform="translate(494.6,53.53)" d="M1.51,0A1.51,1.51 0 1,1 0,-1.51A1.51,1.51 0 0,1 1.51,0Z" style="opacity: 0.35; stroke-width: 0px; fill: rgb(241, 96, 93); fill-opacity: 1;"/><path class="point" transform="translate(506.22,22.73)" d="M1.51,0A1.51,1.51 0 1,1 0,-1.51A1.51,1.51 0 0,1 1.51,0Z" style="opacity: 0.35; stroke-width: 0px; fill: rgb(241, 96, 93); fill-opacity: 1;"/><path class="point" transform="translate(505.41,22.73)" d="M1.51,0A1.51,1.51 0 1,1 0,-1.51A1.51,1.51 0 0,1 1.51,0Z" style="opacity: 0.35; stroke-width: 0px; fill: rgb(241, 96, 93); fill-opacity: 1;"/><path class="point" transform="translate(496.56,22.73)" d="M1.51,0A1.51,1.51 0 1,1 0,-1.51A1.51,1.51 0 0,1 1.51,0Z" style="opacity: 0.35; stroke-width: 0px; fill: rgb(241, 96, 93); fill-opacity: 1;"/><path class="point" transform="translate(494.79,22.73)" d="M1.51,0A1.51,1.51 0 1,1 0,-1.51A1.51,1.51 0 0,1 1.51,0Z" style="opacity: 0.35; stroke-width: 0px; fill: rgb(241, 96, 93); fill-opacity: 1;"/><path class="point" transform="translate(507,22.73)" d="M1.51,0A1.51,1.51 0 1,1 0,-1.51A1.51,1.51 0 0,1 1.51,0Z" style="opacity: 0.35; stroke-width: 0px; fill: rgb(241, 96, 93); fill-opacity: 1;"/><path class="point" transform="translate(495.48,22.73)" d="M1.51,0A1.51,1.51 0 1,1 0,-1.51A1.51,1.51 0 0,1 1.51,0Z" style="opacity: 0.35; stroke-width: 0px; fill: rgb(241, 96, 93); fill-opacity: 1;"/><path class="point" transform="translate(497.52,22.73)" d="M1.51,0A1.51,1.51 0 1,1 0,-1.51A1.51,1.51 0 0,1 1.51,0Z" style="opacity: 0.35; stroke-width: 0px; fill: rgb(241, 96, 93); fill-opacity: 1;"/><path class="point" transform="translate(502.39,22.73)" d="M1.51,0A1.51,1.51 0 1,1 0,-1.51A1.51,1.51 0 0,1 1.51,0Z" style="opacity: 0.35; stroke-width: 0px; fill: rgb(241, 96, 93); fill-opacity: 1;"/><path class="point" transform="translate(502.52,22.73)" d="M1.51,0A1.51,1.51 0 1,1 0,-1.51A1.51,1.51 0 0,1 1.51,0Z" style="opacity: 0.35; stroke-width: 0px; fill: rgb(241, 96, 93); fill-opacity: 1;"/><path class="point" transform="translate(494.47,22.73)" d="M1.51,0A1.51,1.51 0 1,1 0,-1.51A1.51,1.51 0 0,1 1.51,0Z" style="opacity: 0.35; stroke-width: 0px; fill: rgb(241, 96, 93); fill-opacity: 1;"/><path class="point" transform="translate(494.14,22.73)" d="M1.51,0A1.51,1.51 0 1,1 0,-1.51A1.51,1.51 0 0,1 1.51,0Z" style="opacity: 0.35; stroke-width: 0px; fill: rgb(241, 96, 93); fill-opacity: 1;"/><path class="point" transform="translate(487.9,43.54)" d="M1.51,0A1.51,1.51 0 1,1 0,-1.51A1.51,1.51 0 0,1 1.51,0Z" style="opacity: 0.35; stroke-width: 0px; fill: rgb(241, 96, 93); fill-opacity: 1;"/><path class="point" transform="translate(498.02,22.73)" d="M1.51,0A1.51,1.51 0 1,1 0,-1.51A1.51,1.51 0 0,1 1.51,0Z" style="opacity: 0.35; stroke-width: 0px; fill: rgb(241, 96, 93); fill-opacity: 1;"/><path class="point" transform="translate(488.24,22.73)" d="M1.51,0A1.51,1.51 0 1,1 0,-1.51A1.51,1.51 0 0,1 1.51,0Z" style="opacity: 0.35; stroke-width: 0px; fill: rgb(241, 96, 93); fill-opacity: 1;"/><path class="point" transform="translate(487.52,44.1)" d="M1.51,0A1.51,1.51 0 1,1 0,-1.51A1.51,1.51 0 0,1 1.51,0Z" style="opacity: 0.35; stroke-width: 0px; fill: rgb(241, 96, 93); fill-opacity: 1;"/><path class="point" transform="translate(496.99,22.73)" d="M1.51,0A1.51,1.51 0 1,1 0,-1.51A1.51,1.51 0 0,1 1.51,0Z" style="opacity: 0.35; stroke-width: 0px; fill: rgb(241, 96, 93); fill-opacity: 1;"/><path class="point" transform="translate(502.95,22.73)" d="M1.51,0A1.51,1.51 0 1,1 0,-1.51A1.51,1.51 0 0,1 1.51,0Z" style="opacity: 0.35; stroke-width: 0px; fill: rgb(241, 96, 93); fill-opacity: 1;"/><path class="point" transform="translate(504.77,22.73)" d="M1.51,0A1.51,1.51 0 1,1 0,-1.51A1.51,1.51 0 0,1 1.51,0Z" style="opacity: 0.35; stroke-width: 0px; fill: rgb(241, 96, 93); fill-opacity: 1;"/><path class="point" transform="translate(507.27,22.73)" d="M1.51,0A1.51,1.51 0 1,1 0,-1.51A1.51,1.51 0 0,1 1.51,0Z" style="opacity: 0.35; stroke-width: 0px; fill: rgb(241, 96, 93); fill-opacity: 1;"/><path class="point" transform="translate(504.07,45.42)" d="M1.51,0A1.51,1.51 0 1,1 0,-1.51A1.51,1.51 0 0,1 1.51,0Z" style="opacity: 0.35; stroke-width: 0px; fill: rgb(241, 96, 93); fill-opacity: 1;"/><path class="point" transform="translate(496.8,45.18)" d="M1.51,0A1.51,1.51 0 1,1 0,-1.51A1.51,1.51 0 0,1 1.51,0Z" style="opacity: 0.35; stroke-width: 0px; fill: rgb(241, 96, 93); fill-opacity: 1;"/><path class="point" transform="translate(493.08,22.73)" d="M1.51,0A1.51,1.51 0 1,1 0,-1.51A1.51,1.51 0 0,1 1.51,0Z" style="opacity: 0.35; stroke-width: 0px; fill: rgb(241, 96, 93); fill-opacity: 1;"/><path class="point" transform="translate(488.52,22.73)" d="M1.51,0A1.51,1.51 0 1,1 0,-1.51A1.51,1.51 0 0,1 1.51,0Z" style="opacity: 0.35; stroke-width: 0px; fill: rgb(241, 96, 93); fill-opacity: 1;"/><path class="point" transform="translate(489.22,22.73)" d="M1.51,0A1.51,1.51 0 1,1 0,-1.51A1.51,1.51 0 0,1 1.51,0Z" style="opacity: 0.35; stroke-width: 0px; fill: rgb(241, 96, 93); fill-opacity: 1;"/><path class="point" transform="translate(496.46,32.79)" d="M1.51,0A1.51,1.51 0 1,1 0,-1.51A1.51,1.51 0 0,1 1.51,0Z" style="opacity: 0.35; stroke-width: 0px; fill: rgb(241, 96, 93); fill-opacity: 1;"/><path class="point" transform="translate(490.73,22.73)" d="M1.51,0A1.51,1.51 0 1,1 0,-1.51A1.51,1.51 0 0,1 1.51,0Z" style="opacity: 0.35; stroke-width: 0px; fill: rgb(241, 96, 93); fill-opacity: 1;"/><path class="point" transform="translate(506.12,22.73)" d="M1.51,0A1.51,1.51 0 1,1 0,-1.51A1.51,1.51 0 0,1 1.51,0Z" style="opacity: 0.35; stroke-width: 0px; fill: rgb(241, 96, 93); fill-opacity: 1;"/><path class="point" transform="translate(486.27,22.73)" d="M1.51,0A1.51,1.51 0 1,1 0,-1.51A1.51,1.51 0 0,1 1.51,0Z" style="opacity: 0.35; stroke-width: 0px; fill: rgb(241, 96, 93); fill-opacity: 1;"/><path class="point" transform="translate(493.91,22.73)" d="M1.51,0A1.51,1.51 0 1,1 0,-1.51A1.51,1.51 0 0,1 1.51,0Z" style="opacity: 0.35; stroke-width: 0px; fill: rgb(241, 96, 93); fill-opacity: 1;"/><path class="point" transform="translate(485.91,22.73)" d="M1.51,0A1.51,1.51 0 1,1 0,-1.51A1.51,1.51 0 0,1 1.51,0Z" style="opacity: 0.35; stroke-width: 0px; fill: rgb(241, 96, 93); fill-opacity: 1;"/><path class="point" transform="translate(493.17,22.73)" d="M1.51,0A1.51,1.51 0 1,1 0,-1.51A1.51,1.51 0 0,1 1.51,0Z" style="opacity: 0.35; stroke-width: 0px; fill: rgb(241, 96, 93); fill-opacity: 1;"/><path class="point" transform="translate(490.19,22.73)" d="M1.51,0A1.51,1.51 0 1,1 0,-1.51A1.51,1.51 0 0,1 1.51,0Z" style="opacity: 0.35; stroke-width: 0px; fill: rgb(241, 96, 93); fill-opacity: 1;"/><path class="point" transform="translate(486.6,22.73)" d="M1.51,0A1.51,1.51 0 1,1 0,-1.51A1.51,1.51 0 0,1 1.51,0Z" style="opacity: 0.35; stroke-width: 0px; fill: rgb(241, 96, 93); fill-opacity: 1;"/><path class="point" transform="translate(493.65,53.36)" d="M1.51,0A1.51,1.51 0 1,1 0,-1.51A1.51,1.51 0 0,1 1.51,0Z" style="opacity: 0.35; stroke-width: 0px; fill: rgb(241, 96, 93); fill-opacity: 1;"/><path class="point" transform="translate(494.6,22.73)" d="M1.51,0A1.51,1.51 0 1,1 0,-1.51A1.51,1.51 0 0,1 1.51,0Z" style="opacity: 0.35; stroke-width: 0px; fill: rgb(241, 96, 93); fill-opacity: 1;"/><path class="point" transform="translate(488.48,22.73)" d="M1.51,0A1.51,1.51 0 1,1 0,-1.51A1.51,1.51 0 0,1 1.51,0Z" style="opacity: 0.35; stroke-width: 0px; fill: rgb(241, 96, 93); fill-opacity: 1;"/><path class="point" transform="translate(507.67,22.73)" d="M1.51,0A1.51,1.51 0 1,1 0,-1.51A1.51,1.51 0 0,1 1.51,0Z" style="opacity: 0.35; stroke-width: 0px; fill: rgb(241, 96, 93); fill-opacity: 1;"/><path class="point" transform="translate(506.89,22.73)" d="M1.51,0A1.51,1.51 0 1,1 0,-1.51A1.51,1.51 0 0,1 1.51,0Z" style="opacity: 0.35; stroke-width: 0px; fill: rgb(241, 96, 93); fill-opacity: 1;"/></g><g class="text"/></g><g class="trace scatter trace8fd56d" style="stroke-miterlimit: 2; opacity: 1;"><g class="fills"/><g class="errorbars"/><g class="lines"/><g class="points"><path class="point" transform="translate(561.79,22.73)" d="M1.51,0A1.51,1.51 0 1,1 0,-1.51A1.51,1.51 0 0,1 1.51,0Z" style="opacity: 0.35; stroke-width: 0px; fill: rgb(253, 149, 103); fill-opacity: 1;"/><path class="point" transform="translate(573.32,22.73)" d="M1.51,0A1.51,1.51 0 1,1 0,-1.51A1.51,1.51 0 0,1 1.51,0Z" style="opacity: 0.35; stroke-width: 0px; fill: rgb(253, 149, 103); fill-opacity: 1;"/><path class="point" transform="translate(564.71,22.73)" d="M1.51,0A1.51,1.51 0 1,1 0,-1.51A1.51,1.51 0 0,1 1.51,0Z" style="opacity: 0.35; stroke-width: 0px; fill: rgb(253, 149, 103); fill-opacity: 1;"/><path class="point" transform="translate(563.19,22.73)" d="M1.51,0A1.51,1.51 0 1,1 0,-1.51A1.51,1.51 0 0,1 1.51,0Z" style="opacity: 0.35; stroke-width: 0px; fill: rgb(253, 149, 103); fill-opacity: 1;"/><path class="point" transform="translate(561.58,22.73)" d="M1.51,0A1.51,1.51 0 1,1 0,-1.51A1.51,1.51 0 0,1 1.51,0Z" style="opacity: 0.35; stroke-width: 0px; fill: rgb(253, 149, 103); fill-opacity: 1;"/><path class="point" transform="translate(580,22.73)" d="M1.51,0A1.51,1.51 0 1,1 0,-1.51A1.51,1.51 0 0,1 1.51,0Z" style="opacity: 0.35; stroke-width: 0px; fill: rgb(253, 149, 103); fill-opacity: 1;"/><path class="point" transform="translate(579.51,22.73)" d="M1.51,0A1.51,1.51 0 1,1 0,-1.51A1.51,1.51 0 0,1 1.51,0Z" style="opacity: 0.35; stroke-width: 0px; fill: rgb(253, 149, 103); fill-opacity: 1;"/><path class="point" transform="translate(570.57,22.73)" d="M1.51,0A1.51,1.51 0 1,1 0,-1.51A1.51,1.51 0 0,1 1.51,0Z" style="opacity: 0.35; stroke-width: 0px; fill: rgb(253, 149, 103); fill-opacity: 1;"/><path class="point" transform="translate(565.11,22.73)" d="M1.51,0A1.51,1.51 0 1,1 0,-1.51A1.51,1.51 0 0,1 1.51,0Z" style="opacity: 0.35; stroke-width: 0px; fill: rgb(253, 149, 103); fill-opacity: 1;"/><path class="point" transform="translate(577.65,22.73)" d="M1.51,0A1.51,1.51 0 1,1 0,-1.51A1.51,1.51 0 0,1 1.51,0Z" style="opacity: 0.35; stroke-width: 0px; fill: rgb(253, 149, 103); fill-opacity: 1;"/><path class="point" transform="translate(562.42,22.73)" d="M1.51,0A1.51,1.51 0 1,1 0,-1.51A1.51,1.51 0 0,1 1.51,0Z" style="opacity: 0.35; stroke-width: 0px; fill: rgb(253, 149, 103); fill-opacity: 1;"/><path class="point" transform="translate(582.27,22.73)" d="M1.51,0A1.51,1.51 0 1,1 0,-1.51A1.51,1.51 0 0,1 1.51,0Z" style="opacity: 0.35; stroke-width: 0px; fill: rgb(253, 149, 103); fill-opacity: 1;"/><path class="point" transform="translate(564.77,22.73)" d="M1.51,0A1.51,1.51 0 1,1 0,-1.51A1.51,1.51 0 0,1 1.51,0Z" style="opacity: 0.35; stroke-width: 0px; fill: rgb(253, 149, 103); fill-opacity: 1;"/><path class="point" transform="translate(573.89,22.73)" d="M1.51,0A1.51,1.51 0 1,1 0,-1.51A1.51,1.51 0 0,1 1.51,0Z" style="opacity: 0.35; stroke-width: 0px; fill: rgb(253, 149, 103); fill-opacity: 1;"/><path class="point" transform="translate(569.11,22.73)" d="M1.51,0A1.51,1.51 0 1,1 0,-1.51A1.51,1.51 0 0,1 1.51,0Z" style="opacity: 0.35; stroke-width: 0px; fill: rgb(253, 149, 103); fill-opacity: 1;"/><path class="point" transform="translate(577.57,22.73)" d="M1.51,0A1.51,1.51 0 1,1 0,-1.51A1.51,1.51 0 0,1 1.51,0Z" style="opacity: 0.35; stroke-width: 0px; fill: rgb(253, 149, 103); fill-opacity: 1;"/><path class="point" transform="translate(561.61,22.73)" d="M1.51,0A1.51,1.51 0 1,1 0,-1.51A1.51,1.51 0 0,1 1.51,0Z" style="opacity: 0.35; stroke-width: 0px; fill: rgb(253, 149, 103); fill-opacity: 1;"/><path class="point" transform="translate(561.73,22.73)" d="M1.51,0A1.51,1.51 0 1,1 0,-1.51A1.51,1.51 0 0,1 1.51,0Z" style="opacity: 0.35; stroke-width: 0px; fill: rgb(253, 149, 103); fill-opacity: 1;"/><path class="point" transform="translate(576.55,22.73)" d="M1.51,0A1.51,1.51 0 1,1 0,-1.51A1.51,1.51 0 0,1 1.51,0Z" style="opacity: 0.35; stroke-width: 0px; fill: rgb(253, 149, 103); fill-opacity: 1;"/><path class="point" transform="translate(569.42,22.73)" d="M1.51,0A1.51,1.51 0 1,1 0,-1.51A1.51,1.51 0 0,1 1.51,0Z" style="opacity: 0.35; stroke-width: 0px; fill: rgb(253, 149, 103); fill-opacity: 1;"/><path class="point" transform="translate(570.43,22.73)" d="M1.51,0A1.51,1.51 0 1,1 0,-1.51A1.51,1.51 0 0,1 1.51,0Z" style="opacity: 0.35; stroke-width: 0px; fill: rgb(253, 149, 103); fill-opacity: 1;"/><path class="point" transform="translate(565.79,22.73)" d="M1.51,0A1.51,1.51 0 1,1 0,-1.51A1.51,1.51 0 0,1 1.51,0Z" style="opacity: 0.35; stroke-width: 0px; fill: rgb(253, 149, 103); fill-opacity: 1;"/><path class="point" transform="translate(579.68,22.73)" d="M1.51,0A1.51,1.51 0 1,1 0,-1.51A1.51,1.51 0 0,1 1.51,0Z" style="opacity: 0.35; stroke-width: 0px; fill: rgb(253, 149, 103); fill-opacity: 1;"/><path class="point" transform="translate(573.53,22.73)" d="M1.51,0A1.51,1.51 0 1,1 0,-1.51A1.51,1.51 0 0,1 1.51,0Z" style="opacity: 0.35; stroke-width: 0px; fill: rgb(253, 149, 103); fill-opacity: 1;"/><path class="point" transform="translate(567.47,22.73)" d="M1.51,0A1.51,1.51 0 1,1 0,-1.51A1.51,1.51 0 0,1 1.51,0Z" style="opacity: 0.35; stroke-width: 0px; fill: rgb(253, 149, 103); fill-opacity: 1;"/><path class="point" transform="translate(570.75,22.73)" d="M1.51,0A1.51,1.51 0 1,1 0,-1.51A1.51,1.51 0 0,1 1.51,0Z" style="opacity: 0.35; stroke-width: 0px; fill: rgb(253, 149, 103); fill-opacity: 1;"/><path class="point" transform="translate(580.26,22.73)" d="M1.51,0A1.51,1.51 0 1,1 0,-1.51A1.51,1.51 0 0,1 1.51,0Z" style="opacity: 0.35; stroke-width: 0px; fill: rgb(253, 149, 103); fill-opacity: 1;"/><path class="point" transform="translate(578.2,22.73)" d="M1.51,0A1.51,1.51 0 1,1 0,-1.51A1.51,1.51 0 0,1 1.51,0Z" style="opacity: 0.35; stroke-width: 0px; fill: rgb(253, 149, 103); fill-opacity: 1;"/><path class="point" transform="translate(567.45,22.73)" d="M1.51,0A1.51,1.51 0 1,1 0,-1.51A1.51,1.51 0 0,1 1.51,0Z" style="opacity: 0.35; stroke-width: 0px; fill: rgb(253, 149, 103); fill-opacity: 1;"/><path class="point" transform="translate(572.89,22.73)" d="M1.51,0A1.51,1.51 0 1,1 0,-1.51A1.51,1.51 0 0,1 1.51,0Z" style="opacity: 0.35; stroke-width: 0px; fill: rgb(253, 149, 103); fill-opacity: 1;"/><path class="point" transform="translate(563.68,22.73)" d="M1.51,0A1.51,1.51 0 1,1 0,-1.51A1.51,1.51 0 0,1 1.51,0Z" style="opacity: 0.35; stroke-width: 0px; fill: rgb(253, 149, 103); fill-opacity: 1;"/></g><g class="text"/></g><g class="trace scatter trace72d7a0" style="stroke-miterlimit: 2; opacity: 1;"><g class="fills"/><g class="errorbars"/><g class="lines"/><g class="points"><path class="point" transform="translate(637.87,22.73)" d="M1.51,0A1.51,1.51 0 1,1 0,-1.51A1.51,1.51 0 0,1 1.51,0Z" style="opacity: 0.35; stroke-width: 0px; fill: rgb(254, 201, 141); fill-opacity: 1;"/><path class="point" transform="translate(641.64,22.73)" d="M1.51,0A1.51,1.51 0 1,1 0,-1.51A1.51,1.51 0 0,1 1.51,0Z" style="opacity: 0.35; stroke-width: 0px; fill: rgb(254, 201, 141); fill-opacity: 1;"/><path class="point" transform="translate(646.71,22.73)" d="M1.51,0A1.51,1.51 0 1,1 0,-1.51A1.51,1.51 0 0,1 1.51,0Z" style="opacity: 0.35; stroke-width: 0px; fill: rgb(254, 201, 141); fill-opacity: 1;"/><path class="point" transform="translate(639.72,22.73)" d="M1.51,0A1.51,1.51 0 1,1 0,-1.51A1.51,1.51 0 0,1 1.51,0Z" style="opacity: 0.35; stroke-width: 0px; fill: rgb(254, 201, 141); fill-opacity: 1;"/></g><g class="text"/></g><g class="trace scatter trace11f75c" style="stroke-miterlimit: 2; opacity: 1;"><g class="fills"/><g class="errorbars"/><g class="lines"/><g class="points"><path class="point" transform="translate(723.94,22.73)" d="M1.51,0A1.51,1.51 0 1,1 0,-1.51A1.51,1.51 0 0,1 1.51,0Z" style="opacity: 0.35; stroke-width: 0px; fill: rgb(252, 253, 191); fill-opacity: 1;"/><path class="point" transform="translate(729.81,22.73)" d="M1.51,0A1.51,1.51 0 1,1 0,-1.51A1.51,1.51 0 0,1 1.51,0Z" style="opacity: 0.35; stroke-width: 0px; fill: rgb(252, 253, 191); fill-opacity: 1;"/><path class="point" transform="translate(732.3,22.73)" d="M1.51,0A1.51,1.51 0 1,1 0,-1.51A1.51,1.51 0 0,1 1.51,0Z" style="opacity: 0.35; stroke-width: 0px; fill: rgb(252, 253, 191); fill-opacity: 1;"/><path class="point" transform="translate(712.87,22.73)" d="M1.51,0A1.51,1.51 0 1,1 0,-1.51A1.51,1.51 0 0,1 1.51,0Z" style="opacity: 0.35; stroke-width: 0px; fill: rgb(252, 253, 191); fill-opacity: 1;"/><path class="point" transform="translate(720.8,22.73)" d="M1.51,0A1.51,1.51 0 1,1 0,-1.51A1.51,1.51 0 0,1 1.51,0Z" style="opacity: 0.35; stroke-width: 0px; fill: rgb(252, 253, 191); fill-opacity: 1;"/><path class="point" transform="translate(717.72,22.73)" d="M1.51,0A1.51,1.51 0 1,1 0,-1.51A1.51,1.51 0 0,1 1.51,0Z" style="opacity: 0.35; stroke-width: 0px; fill: rgb(252, 253, 191); fill-opacity: 1;"/><path class="point" transform="translate(728.04,22.73)" d="M1.51,0A1.51,1.51 0 1,1 0,-1.51A1.51,1.51 0 0,1 1.51,0Z" style="opacity: 0.35; stroke-width: 0px; fill: rgb(252, 253, 191); fill-opacity: 1;"/><path class="point" transform="translate(729.66,22.73)" d="M1.51,0A1.51,1.51 0 1,1 0,-1.51A1.51,1.51 0 0,1 1.51,0Z" style="opacity: 0.35; stroke-width: 0px; fill: rgb(252, 253, 191); fill-opacity: 1;"/><path class="point" transform="translate(731.98,22.73)" d="M1.51,0A1.51,1.51 0 1,1 0,-1.51A1.51,1.51 0 0,1 1.51,0Z" style="opacity: 0.35; stroke-width: 0px; fill: rgb(252, 253, 191); fill-opacity: 1;"/><path class="point" transform="translate(721.69,22.73)" d="M1.51,0A1.51,1.51 0 1,1 0,-1.51A1.51,1.51 0 0,1 1.51,0Z" style="opacity: 0.35; stroke-width: 0px; fill: rgb(252, 253, 191); fill-opacity: 1;"/><path class="point" transform="translate(722.93,22.73)" d="M1.51,0A1.51,1.51 0 1,1 0,-1.51A1.51,1.51 0 0,1 1.51,0Z" style="opacity: 0.35; stroke-width: 0px; fill: rgb(252, 253, 191); fill-opacity: 1;"/><path class="point" transform="translate(721.27,22.73)" d="M1.51,0A1.51,1.51 0 1,1 0,-1.51A1.51,1.51 0 0,1 1.51,0Z" style="opacity: 0.35; stroke-width: 0px; fill: rgb(252, 253, 191); fill-opacity: 1;"/><path class="point" transform="translate(727.72,22.73)" d="M1.51,0A1.51,1.51 0 1,1 0,-1.51A1.51,1.51 0 0,1 1.51,0Z" style="opacity: 0.35; stroke-width: 0px; fill: rgb(252, 253, 191); fill-opacity: 1;"/><path class="point" transform="translate(720.19,22.73)" d="M1.51,0A1.51,1.51 0 1,1 0,-1.51A1.51,1.51 0 0,1 1.51,0Z" style="opacity: 0.35; stroke-width: 0px; fill: rgb(252, 253, 191); fill-opacity: 1;"/></g><g class="text"/></g></g></g><g class="overplot"/><path class="xlines-above crisp" d="" style="fill: none; stroke-width: 1px; stroke: rgb(0, 0, 0); stroke-opacity: 0;"/><path class="ylines-above crisp" d="" style="fill: none; stroke-width: 1px; stroke: rgb(0, 0, 0); stroke-opacity: 0;"/><g class="overlines-above"/><g class="xaxislayer-above"><path class="xtick ticks crisp" d="M0,561v3.652968036529681" transform="translate(115.18,0)" style="stroke: rgb(51, 51, 51); stroke-opacity: 1; stroke-width: 1px;"/><path class="xtick ticks crisp" d="M0,561v3.652968036529681" transform="translate(190.47,0)" style="stroke: rgb(51, 51, 51); stroke-opacity: 1; stroke-width: 1px;"/><path class="xtick ticks crisp" d="M0,561v3.652968036529681" transform="translate(265.76,0)" style="stroke: rgb(51, 51, 51); stroke-opacity: 1; stroke-width: 1px;"/><path class="xtick ticks crisp" d="M0,561v3.652968036529681" transform="translate(341.06,0)" style="stroke: rgb(51, 51, 51); stroke-opacity: 1; stroke-width: 1px;"/><path class="xtick ticks crisp" d="M0,561v3.652968036529681" transform="translate(416.35,0)" style="stroke: rgb(51, 51, 51); stroke-opacity: 1; stroke-width: 1px;"/><path class="xtick ticks crisp" d="M0,561v3.652968036529681" transform="translate(491.65,0)" style="stroke: rgb(51, 51, 51); stroke-opacity: 1; stroke-width: 1px;"/><path class="xtick ticks crisp" d="M0,561v3.652968036529681" transform="translate(566.94,0)" style="stroke: rgb(51, 51, 51); stroke-opacity: 1; stroke-width: 1px;"/><path class="xtick ticks crisp" d="M0,561v3.652968036529681" transform="translate(642.24,0)" style="stroke: rgb(51, 51, 51); stroke-opacity: 1; stroke-width: 1px;"/><path class="xtick ticks crisp" d="M0,561v3.652968036529681" transform="translate(717.53,0)" style="stroke: rgb(51, 51, 51); stroke-opacity: 1; stroke-width: 1px;"/><path class="xtick ticks crisp" d="M0,561v3.652968036529681" transform="translate(792.82,0)" style="stroke: rgb(51, 51, 51); stroke-opacity: 1; stroke-width: 1px;"/><g class="xtick"><text text-anchor="middle" x="0" y="578.6803652968036" transform="translate(115.18,0)" style="font-family: 'Open Sans', verdana, arial, sans-serif; font-size: 11.6895px; fill: rgb(77, 77, 77); fill-opacity: 1; white-space: pre; opacity: 1;"><tspan class="line" dy="0em" x="0" y="578.6803652968036">Micro</tspan><tspan class="line" dy="1.3em" x="0" y="578.6803652968036">(n=0)</tspan></text></g><g class="xtick"><text text-anchor="middle" x="0" y="578.6803652968036" style="font-family: 'Open Sans', verdana, arial, sans-serif; font-size: 11.6895px; fill: rgb(77, 77, 77); fill-opacity: 1; white-space: pre; opacity: 1;" transform="translate(190.47,0)"><tspan class="line" dy="0em" x="0" y="578.6803652968036">Mini</tspan><tspan class="line" dy="1.3em" x="0" y="578.6803652968036">(n=93)</tspan></text></g><g class="xtick"><text text-anchor="middle" x="0" y="578.6803652968036" style="font-family: 'Open Sans', verdana, arial, sans-serif; font-size: 11.6895px; fill: rgb(77, 77, 77); fill-opacity: 1; white-space: pre; opacity: 1;" transform="translate(265.76,0)"><tspan class="line" dy="0em" x="0" y="578.6803652968036">Control</tspan><tspan class="line" dy="1.3em" x="0" y="578.6803652968036">(n=20)</tspan></text></g><g class="xtick"><text text-anchor="middle" x="0" y="578.6803652968036" style="font-family: 'Open Sans', verdana, arial, sans-serif; font-size: 11.6895px; fill: rgb(77, 77, 77); fill-opacity: 1; white-space: pre; opacity: 1;" transform="translate(341.06,0)"><tspan class="line" dy="0em" x="0" y="578.6803652968036">Fringe</tspan><tspan class="line" dy="1.3em" x="0" y="578.6803652968036">(n=1)</tspan></text></g><g class="xtick"><text text-anchor="middle" x="0" y="578.6803652968036" style="font-family: 'Open Sans', verdana, arial, sans-serif; font-size: 11.6895px; fill: rgb(77, 77, 77); fill-opacity: 1; white-space: pre; opacity: 1;" transform="translate(416.35,0)"><tspan class="line" dy="0em" x="0" y="578.6803652968036">Refseq</tspan><tspan class="line" dy="1.3em" x="0" y="578.6803652968036">(n=17)</tspan></text></g><g class="xtick"><text text-anchor="middle" x="0" y="578.6803652968036" style="font-family: 'Open Sans', verdana, arial, sans-serif; font-size: 11.6895px; fill: rgb(77, 77, 77); fill-opacity: 1; white-space: pre; opacity: 1;" transform="translate(491.65,0)"><tspan class="line" dy="0em" x="0" y="578.6803652968036">PICIs</tspan><tspan class="line" dy="1.3em" x="0" y="578.6803652968036">(n=0)</tspan></text></g><g class="xtick"><text text-anchor="middle" x="0" y="578.6803652968036" style="font-family: 'Open Sans', verdana, arial, sans-serif; font-size: 11.6895px; fill: rgb(77, 77, 77); fill-opacity: 1; white-space: pre; opacity: 1;" transform="translate(566.94,0)"><tspan class="line" dy="0em" x="0" y="578.6803652968036">ENC_1</tspan><tspan class="line" dy="1.3em" x="0" y="578.6803652968036">(n=55)</tspan></text></g><g class="xtick"><text text-anchor="middle" x="0" y="578.6803652968036" style="font-family: 'Open Sans', verdana, arial, sans-serif; font-size: 11.6895px; fill: rgb(77, 77, 77); fill-opacity: 1; white-space: pre; opacity: 1;" transform="translate(642.24,0)"><tspan class="line" dy="0em" x="0" y="578.6803652968036">ENC_2</tspan><tspan class="line" dy="1.3em" x="0" y="578.6803652968036">(n=31)</tspan></text></g><g class="xtick"><text text-anchor="middle" x="0" y="578.6803652968036" style="font-family: 'Open Sans', verdana, arial, sans-serif; font-size: 11.6895px; fill: rgb(77, 77, 77); fill-opacity: 1; white-space: pre; opacity: 1;" transform="translate(717.53,0)"><tspan class="line" dy="0em" x="0" y="578.6803652968036">ENC_3</tspan><tspan class="line" dy="1.3em" x="0" y="578.6803652968036">(n=4)</tspan></text></g><g class="xtick"><text text-anchor="middle" x="0" y="578.6803652968036" style="font-family: 'Open Sans', verdana, arial, sans-serif; font-size: 11.6895px; fill: rgb(77, 77, 77); fill-opacity: 1; white-space: pre; opacity: 1;" transform="translate(792.82,0)"><tspan class="line" dy="0em" x="0" y="578.6803652968036">ENC_4</tspan><tspan class="line" dy="1.3em" x="0" y="578.6803652968036">(n=14)</tspan></text></g></g><g class="yaxislayer-above"><path class="ytick ticks crisp" d="M69,0h-3.652968036529681" transform="translate(0,537.27)" style="stroke: rgb(51, 51, 51); stroke-opacity: 1; stroke-width: 1px;"/><path class="ytick ticks crisp" d="M69,0h-3.652968036529681" transform="translate(0,423.64)" style="stroke: rgb(51, 51, 51); stroke-opacity: 1; stroke-width: 1px;"/><path class="ytick ticks crisp" d="M69,0h-3.652968036529681" transform="translate(0,310)" style="stroke: rgb(51, 51, 51); stroke-opacity: 1; stroke-width: 1px;"/><path class="ytick ticks crisp" d="M69,0h-3.652968036529681" transform="translate(0,196.36)" style="stroke: rgb(51, 51, 51); stroke-opacity: 1; stroke-width: 1px;"/><path class="ytick ticks crisp" d="M69,0h-3.652968036529681" transform="translate(0,82.73)" style="stroke: rgb(51, 51, 51); stroke-opacity: 1; stroke-width: 1px;"/><g class="ytick"><text text-anchor="end" x="63.00913242009132" y="4.091324200913243" transform="translate(0,537.27)" style="font-family: 'Open Sans', verdana, arial, sans-serif; font-size: 11.6895px; fill: rgb(77, 77, 77); fill-opacity: 1; white-space: pre; opacity: 1;">0</text></g><g class="ytick"><text text-anchor="end" x="63.00913242009132" y="4.091324200913243" style="font-family: 'Open Sans', verdana, arial, sans-serif; font-size: 11.6895px; fill: rgb(77, 77, 77); fill-opacity: 1; white-space: pre; opacity: 1;" transform="translate(0,423.64)">25</text></g><g class="ytick"><text text-anchor="end" x="63.00913242009132" y="4.091324200913243" style="font-family: 'Open Sans', verdana, arial, sans-serif; font-size: 11.6895px; fill: rgb(77, 77, 77); fill-opacity: 1; white-space: pre; opacity: 1;" transform="translate(0,310)">50</text></g><g class="ytick"><text text-anchor="end" x="63.00913242009132" y="4.091324200913243" style="font-family: 'Open Sans', verdana, arial, sans-serif; font-size: 11.6895px; fill: rgb(77, 77, 77); fill-opacity: 1; white-space: pre; opacity: 1;" transform="translate(0,196.36)">75</text></g><g class="ytick"><text text-anchor="end" x="63.00913242009132" y="4.091324200913243" style="font-family: 'Open Sans', verdana, arial, sans-serif; font-size: 11.6895px; fill: rgb(77, 77, 77); fill-opacity: 1; white-space: pre; opacity: 1;" transform="translate(0,82.73)">100</text></g></g><g class="overaxes-above"/></g></g><g class="polarlayer"/><g class="smithlayer"/><g class="ternarylayer"/><g class="geolayer"/><g class="funnelarealayer"/><g class="pielayer"/><g class="iciclelayer"/><g class="treemaplayer"/><g class="sunburstlayer"/><g class="glimages"/><defs id="topdefs-c159d0"><g class="clips"/></defs><g class="layer-above"><g class="imagelayer"/><g class="shapelayer"/></g><g class="infolayer"><g class="g-gtitle"><text class="gtitle" x="70" y="30" text-anchor="start" dy="0em" style="font-family: 'Open Sans', verdana, arial, sans-serif; font-size: 15.94px; fill: rgb(0, 0, 0); opacity: 1; font-weight: normal; white-space: pre;">Encapsulin Percentage by Group</text></g><g class="g-xtitle"><text class="xtitle" x="454" y="613.8356164383562" text-anchor="middle" style="font-family: 'Open Sans', verdana, arial, sans-serif; font-size: 14.61px; fill: rgb(0, 0, 0); opacity: 1; font-weight: normal; white-space: pre;">Group</text></g><g class="g-ytitle"><text class="ytitle" transform="rotate(-90,30.77625570776255,310)" x="30.77625570776255" y="310" text-anchor="middle" style="font-family: 'Open Sans', verdana, arial, sans-serif; font-size: 14.61px; fill: rgb(0, 0, 0); opacity: 1; font-weight: normal; white-space: pre;">enc_perc_fraction</text></g></g></svg>